<?xml version="1.0" encoding="UTF-8"?>
<svg width="144px" height="67px" viewBox="0 0 144 67" version="1.1" xmlns="http://www.w3.org/2000/svg" xmlns:xlink="http://www.w3.org/1999/xlink">
    <title>LOGO VG LIGHT</title>
    <defs>
        <polygon id="path-1" points="0 66.2164 144.004 66.2164 144.004 0.0004 0 0.0004"></polygon>
    </defs>
    <g id="Page-1" stroke="none" stroke-width="1" fill="none" fill-rule="evenodd">
        <g id="VG-CONTACTE" transform="translate(-135.000000, -75.000000)">
            <g id="LOGO-VG-LIGHT" transform="translate(135.000000, 75.000000)">
                <path d="M55.3296,45.0435 C55.8536,45.0435 56.2936,45.1655 56.6466,45.4115 C56.9996,45.6575 57.2226,45.9975 57.3126,46.4325 L56.1526,46.6685 C56.1096,46.4535 56.0096,46.2875 55.8516,46.1705 C55.6946,46.0545 55.5156,45.9955 55.3146,45.9955 C55.1236,45.9955 54.9686,46.0415 54.8496,46.1355 C54.7296,46.2285 54.6706,46.3445 54.6706,46.4815 C54.6706,46.6915 54.7996,46.8255 55.0576,46.8835 L56.0526,47.1055 C56.9306,47.3015 57.3696,47.7665 57.3696,48.5015 C57.3696,48.9925 57.1816,49.3745 56.8046,49.6475 C56.4276,49.9195 55.9566,50.0555 55.3936,50.0555 C54.8356,50.0555 54.3606,49.9275 53.9726,49.6725 C53.5836,49.4165 53.3576,49.0605 53.2956,48.6025 L54.5136,48.3655 C54.6276,48.8385 54.9426,49.0735 55.4586,49.0735 C55.6776,49.0735 55.8506,49.0285 55.9766,48.9385 C56.1036,48.8475 56.1666,48.7285 56.1666,48.5805 C56.1666,48.4655 56.1346,48.3745 56.0696,48.3085 C56.0056,48.2415 55.8906,48.1905 55.7236,48.1575 L54.7206,47.9425 C53.8616,47.7475 53.4326,47.2835 53.4326,46.5545 C53.4326,46.0915 53.6056,45.7235 53.9546,45.4505 C54.3036,45.1795 54.7616,45.0435 55.3296,45.0435" id="Fill-1" fill="#94C83D"></path>
                <path d="M59.4321,48.5699 C59.6941,48.8399 60.0211,48.9739 60.4121,48.9739 C60.8041,48.9739 61.1311,48.8399 61.3941,48.5699 C61.6561,48.2989 61.7871,47.9629 61.7871,47.5559 C61.7871,47.1459 61.6561,46.8039 61.3941,46.5329 C61.1311,46.2599 60.8041,46.1249 60.4121,46.1249 C60.0211,46.1249 59.6941,46.2599 59.4321,46.5329 C59.1691,46.8039 59.0371,47.1459 59.0371,47.5559 C59.0371,47.9629 59.1691,48.2989 59.4321,48.5699 M58.5971,45.7729 C59.0911,45.2869 59.6971,45.0439 60.4121,45.0439 C61.1281,45.0439 61.7341,45.2869 62.2281,45.7729 C62.7221,46.2599 62.9691,46.8549 62.9691,47.5559 C62.9691,48.2539 62.7221,48.8439 62.2281,49.3289 C61.7341,49.8129 61.1281,50.0549 60.4121,50.0549 C59.6971,50.0549 59.0911,49.8129 58.5971,49.3289 C58.1041,48.8439 57.8571,48.2539 57.8571,47.5559 C57.8571,46.8549 58.1041,46.2599 58.5971,45.7729" id="Fill-3" fill="#94C83D"></path>
                <polygon id="Fill-5" fill="#94C83D" points="67.1792 48.9166 67.1792 49.9476 63.6342 49.9476 63.6342 45.1506 64.8162 45.1506 64.8162 48.9166"></polygon>
                <path d="M72.0269,45.151 L72.0269,47.786 C72.0269,48.473 71.8329,49.023 71.4439,49.436 C71.0539,49.849 70.5399,50.055 69.9009,50.055 C69.2469,50.055 68.7199,49.849 68.3219,49.436 C67.9229,49.023 67.7239,48.473 67.7239,47.786 L67.7239,45.151 L68.9049,45.151 L68.9049,47.786 C68.9049,48.148 68.9959,48.436 69.1769,48.648 C69.3589,48.861 69.5999,48.967 69.9009,48.967 C70.1869,48.967 70.4159,48.861 70.5879,48.648 C70.7589,48.436 70.8449,48.148 70.8449,47.786 L70.8449,45.151 L72.0269,45.151 Z" id="Fill-7" fill="#94C83D"></path>
                <path d="M76.4868,47.9215 L77.6468,48.1505 C77.5378,48.7425 77.2628,49.2075 76.8238,49.5465 C76.3838,49.8865 75.8518,50.0555 75.2268,50.0555 C74.5148,50.0555 73.9128,49.8145 73.4188,49.3315 C72.9248,48.8505 72.6778,48.2555 72.6778,47.5495 C72.6778,46.8475 72.9248,46.2545 73.4188,45.7705 C73.9128,45.2855 74.5148,45.0435 75.2268,45.0435 C75.8288,45.0435 76.3518,45.2105 76.7988,45.5445 C77.2448,45.8785 77.5248,46.3245 77.6398,46.8835 L76.4798,47.1555 C76.4088,46.8165 76.2608,46.5605 76.0398,46.3855 C75.8178,46.2115 75.5468,46.1245 75.2268,46.1245 C74.8448,46.1245 74.5218,46.2605 74.2568,46.5325 C73.9918,46.8045 73.8588,47.1435 73.8588,47.5495 C73.8588,47.9545 73.9918,48.2955 74.2568,48.5695 C74.5218,48.8445 74.8448,48.9815 75.2268,48.9815 C75.5418,48.9815 75.8098,48.8925 76.0328,48.7125 C76.2548,48.5335 76.4058,48.2705 76.4868,47.9215" id="Fill-9" fill="#94C83D"></path>
                <mask id="mask-2" fill="white">
                    <use xlink:href="#path-1"></use>
                </mask>
                <g id="Clip-12"></g>
                <polygon id="Fill-11" fill="#94C83D" mask="url(#mask-2)" points="78.313 49.9474 79.495 49.9474 79.495 45.1504 78.313 45.1504"></polygon>
                <path d="M81.7358,48.5699 C81.9978,48.8399 82.3248,48.9739 82.7158,48.9739 C83.1078,48.9739 83.4348,48.8399 83.6978,48.5699 C83.9598,48.2989 84.0908,47.9629 84.0908,47.5559 C84.0908,47.1459 83.9598,46.8039 83.6978,46.5329 C83.4348,46.2599 83.1078,46.1249 82.7158,46.1249 C82.3248,46.1249 81.9978,46.2599 81.7358,46.5329 C81.4728,46.8039 81.3408,47.1459 81.3408,47.5559 C81.3408,47.9629 81.4728,48.2989 81.7358,48.5699 M80.9008,45.7729 C81.3948,45.2869 82.0008,45.0439 82.7158,45.0439 C83.4318,45.0439 84.0378,45.2869 84.5318,45.7729 C85.0258,46.2599 85.2728,46.8549 85.2728,47.5559 C85.2728,48.2539 85.0258,48.8439 84.5318,49.3289 C84.0378,49.8129 83.4318,50.0549 82.7158,50.0549 C82.0008,50.0549 81.3948,49.8129 80.9008,49.3289 C80.4078,48.8439 80.1608,48.2539 80.1608,47.5559 C80.1608,46.8549 80.4078,46.2599 80.9008,45.7729" id="Fill-13" fill="#94C83D" mask="url(#mask-2)"></path>
                <polygon id="Fill-14" fill="#94C83D" mask="url(#mask-2)" points="90.522 45.151 90.522 49.948 89.548 49.948 87.121 47.17 87.121 49.948 85.939 49.948 85.939 45.151 86.92 45.151 89.347 48.014 89.347 45.151"></polygon>
                <polygon id="Fill-15" fill="#94C83D" mask="url(#mask-2)" points="95.0972 48.9312 95.0972 49.9482 91.3592 49.9482 91.3592 45.1512 95.0762 45.1512 95.0762 46.1672 92.5402 46.1672 92.5402 47.0702 94.8682 47.0702 94.8682 48.0292 92.5402 48.0292 92.5402 48.9312"></polygon>
                <path d="M97.7173,45.0435 C98.2413,45.0435 98.6813,45.1655 99.0343,45.4115 C99.3873,45.6575 99.6103,45.9975 99.7003,46.4325 L98.5403,46.6685 C98.4973,46.4535 98.3973,46.2875 98.2393,46.1705 C98.0823,46.0545 97.9033,45.9955 97.7023,45.9955 C97.5113,45.9955 97.3563,46.0415 97.2373,46.1355 C97.1173,46.2285 97.0583,46.3445 97.0583,46.4815 C97.0583,46.6915 97.1873,46.8255 97.4453,46.8835 L98.4403,47.1055 C99.3183,47.3015 99.7573,47.7665 99.7573,48.5015 C99.7573,48.9925 99.5693,49.3745 99.1923,49.6475 C98.8153,49.9195 98.3443,50.0555 97.7813,50.0555 C97.2233,50.0555 96.7483,49.9275 96.3603,49.6725 C95.9713,49.4165 95.7453,49.0605 95.6833,48.6025 L96.9013,48.3655 C97.0153,48.8385 97.3303,49.0735 97.8463,49.0735 C98.0653,49.0735 98.2383,49.0285 98.3643,48.9385 C98.4913,48.8475 98.5543,48.7285 98.5543,48.5805 C98.5543,48.4655 98.5223,48.3745 98.4573,48.3085 C98.3933,48.2415 98.2783,48.1905 98.1113,48.1575 L97.1083,47.9425 C96.2493,47.7475 95.8203,47.2835 95.8203,46.5545 C95.8203,46.0915 95.9933,45.7235 96.3423,45.4505 C96.6913,45.1795 97.1493,45.0435 97.7173,45.0435" id="Fill-16" fill="#94C83D" mask="url(#mask-2)"></path>
                <path d="M55.6802,55.2008 L58.3222,55.2008 C58.3412,55.3528 58.3512,55.4988 58.3512,55.6378 C58.3512,56.3628 58.1172,56.9608 57.6492,57.4308 C57.1812,57.9008 56.5872,58.1368 55.8662,58.1368 C55.1402,58.1368 54.5292,57.8948 54.0302,57.4128 C53.5312,56.9308 53.2822,56.3368 53.2822,55.6308 C53.2822,54.9288 53.5292,54.3358 54.0222,53.8508 C54.5162,53.3668 55.1232,53.1248 55.8442,53.1248 C56.3942,53.1248 56.8802,53.2498 57.3052,53.4998 C57.7302,53.7508 58.0242,54.1048 58.1862,54.5628 L57.0472,54.8928 C56.8142,54.4338 56.4122,54.2058 55.8442,54.2058 C55.4532,54.2058 55.1262,54.3418 54.8642,54.6138 C54.6012,54.8858 54.4702,55.2238 54.4702,55.6308 C54.4702,56.0358 54.6052,56.3768 54.8742,56.6508 C55.1442,56.9258 55.4802,57.0618 55.8802,57.0618 C56.1912,57.0618 56.4562,56.9858 56.6792,56.8338 C56.9012,56.6798 57.0572,56.4708 57.1482,56.2028 L55.6802,56.2028 L55.6802,55.2008 Z" id="Fill-17" fill="#94C83D" mask="url(#mask-2)"></path>
                <path d="M61.645,56.1383 L61.029,54.5633 L60.42,56.1383 L61.645,56.1383 Z M63.635,58.0293 L62.375,58.0293 L62.039,57.1553 L60.019,57.1553 L59.683,58.0293 L58.416,58.0293 L60.42,53.2323 L61.63,53.2323 L63.635,58.0293 Z" id="Fill-18" fill="#94C83D" mask="url(#mask-2)"></path>
                <path d="M65.812,53.1246 C66.336,53.1246 66.776,53.2466 67.129,53.4926 C67.482,53.7386 67.705,54.0786 67.795,54.5136 L66.635,54.7496 C66.592,54.5346 66.492,54.3686 66.334,54.2516 C66.177,54.1356 65.998,54.0766 65.797,54.0766 C65.606,54.0766 65.451,54.1226 65.332,54.2166 C65.212,54.3096 65.153,54.4256 65.153,54.5626 C65.153,54.7726 65.282,54.9066 65.54,54.9646 L66.535,55.1866 C67.413,55.3826 67.852,55.8476 67.852,56.5826 C67.852,57.0736 67.664,57.4556 67.287,57.7286 C66.91,58.0006 66.439,58.1366 65.876,58.1366 C65.318,58.1366 64.843,58.0086 64.455,57.7536 C64.066,57.4976 63.84,57.1416 63.778,56.6836 L64.996,56.4466 C65.11,56.9196 65.425,57.1546 65.941,57.1546 C66.16,57.1546 66.333,57.1096 66.459,57.0196 C66.586,56.9286 66.649,56.8096 66.649,56.6616 C66.649,56.5466 66.617,56.4556 66.552,56.3896 C66.488,56.3226 66.373,56.2716 66.206,56.2386 L65.203,56.0236 C64.344,55.8286 63.915,55.3646 63.915,54.6356 C63.915,54.1726 64.088,53.8046 64.437,53.5316 C64.786,53.2606 65.244,53.1246 65.812,53.1246" id="Fill-19" fill="#94C83D" mask="url(#mask-2)"></path>
                <polygon id="Fill-20" fill="#94C83D" mask="url(#mask-2)" points="72.4487 54.2623 70.8947 54.2623 70.8947 58.0293 69.7207 58.0293 69.7207 54.2623 68.1677 54.2623 68.1677 53.2323 72.4487 53.2323"></polygon>
                <path d="M74.189,55.3941 L75.306,55.3941 C75.516,55.3941 75.684,55.3411 75.811,55.2371 C75.937,55.1311 76.001,54.9911 76.001,54.8141 C76.001,54.6421 75.937,54.5031 75.811,54.3991 C75.684,54.2931 75.516,54.2411 75.306,54.2411 L74.189,54.2411 L74.189,55.3941 Z M77.404,58.0291 L75.979,58.0291 L74.533,56.3821 L74.189,56.3821 L74.189,58.0291 L73.007,58.0291 L73.007,53.2321 L75.435,53.2321 C75.956,53.2321 76.373,53.3751 76.688,53.6651 C77.003,53.9541 77.161,54.3321 77.161,54.7991 C77.161,55.1911 77.048,55.5221 76.824,55.7911 C76.599,56.0611 76.292,56.2391 75.9,56.3251 L77.404,58.0291 Z" id="Fill-21" fill="#94C83D" mask="url(#mask-2)"></path>
                <path d="M79.2085,56.651 C79.4705,56.921 79.7975,57.055 80.1885,57.055 C80.5805,57.055 80.9075,56.921 81.1705,56.651 C81.4325,56.38 81.5635,56.044 81.5635,55.637 C81.5635,55.227 81.4325,54.885 81.1705,54.614 C80.9075,54.341 80.5805,54.206 80.1885,54.206 C79.7975,54.206 79.4705,54.341 79.2085,54.614 C78.9455,54.885 78.8135,55.227 78.8135,55.637 C78.8135,56.044 78.9455,56.38 79.2085,56.651 M78.3735,53.854 C78.8675,53.368 79.4735,53.125 80.1885,53.125 C80.9045,53.125 81.5105,53.368 82.0045,53.854 C82.4985,54.341 82.7455,54.936 82.7455,55.637 C82.7455,56.335 82.4985,56.925 82.0045,57.41 C81.5105,57.894 80.9045,58.136 80.1885,58.136 C79.4735,58.136 78.8675,57.894 78.3735,57.41 C77.8805,56.925 77.6335,56.335 77.6335,55.637 C77.6335,54.936 77.8805,54.341 78.3735,53.854" id="Fill-22" fill="#94C83D" mask="url(#mask-2)"></path>
                <polygon id="Fill-23" fill="#94C83D" mask="url(#mask-2)" points="87.9937 53.232 87.9937 58.029 87.0197 58.029 84.5927 55.251 84.5927 58.029 83.4107 58.029 83.4107 53.232 84.3917 53.232 86.8187 56.095 86.8187 53.232"></polygon>
                <path d="M91.7388,52.7662 L90.7218,52.7662 L91.2298,51.6772 L92.5918,51.6772 L91.7388,52.7662 Z M90.2428,56.6512 C90.5048,56.9202 90.8318,57.0552 91.2228,57.0552 C91.6148,57.0552 91.9418,56.9202 92.2048,56.6512 C92.4668,56.3802 92.5978,56.0432 92.5978,55.6372 C92.5978,55.2272 92.4668,54.8852 92.2048,54.6142 C91.9418,54.3412 91.6148,54.2052 91.2228,54.2052 C90.8318,54.2052 90.5048,54.3412 90.2428,54.6142 C89.9798,54.8852 89.8478,55.2272 89.8478,55.6372 C89.8478,56.0432 89.9798,56.3802 90.2428,56.6512 L90.2428,56.6512 Z M89.4078,53.8542 C89.9018,53.3682 90.5078,53.1242 91.2228,53.1242 C91.9388,53.1242 92.5448,53.3682 93.0388,53.8542 C93.5328,54.3412 93.7798,54.9362 93.7798,55.6372 C93.7798,56.3342 93.5328,56.9252 93.0388,57.4102 C92.5448,57.8942 91.9388,58.1362 91.2228,58.1362 C90.5078,58.1362 89.9018,57.8942 89.4078,57.4102 C88.9148,56.9252 88.6678,56.3342 88.6678,55.6372 C88.6678,54.9362 88.9148,54.3412 89.4078,53.8542 L89.4078,53.8542 Z" id="Fill-24" fill="#94C83D" mask="url(#mask-2)"></path>
                <polygon id="Fill-25" fill="#94C83D" mask="url(#mask-2)" points="99.98 53.232 99.98 58.029 98.834 58.029 98.834 55.637 97.582 58.029 96.851 58.029 95.59 55.623 95.59 58.029 94.445 58.029 94.445 53.232 95.605 53.232 97.216 56.203 98.827 53.232"></polygon>
                <polygon id="Fill-26" fill="#94C83D" mask="url(#mask-2)" points="100.81 58.0284 101.992 58.0284 101.992 53.2314 100.81 53.2314"></polygon>
                <path d="M106.4663,56.0025 L107.6263,56.2315 C107.5173,56.8235 107.2423,57.2885 106.8033,57.6275 C106.3633,57.9675 105.8313,58.1365 105.2063,58.1365 C104.4943,58.1365 103.8923,57.8955 103.3983,57.4125 C102.9043,56.9315 102.6573,56.3365 102.6573,55.6305 C102.6573,54.9285 102.9043,54.3355 103.3983,53.8515 C103.8923,53.3665 104.4943,53.1245 105.2063,53.1245 C105.8083,53.1245 106.3313,53.2915 106.7783,53.6255 C107.2243,53.9595 107.5043,54.4055 107.6193,54.9645 L106.4593,55.2365 C106.3883,54.8975 106.2403,54.6415 106.0193,54.4665 C105.7973,54.2925 105.5263,54.2055 105.2063,54.2055 C104.8243,54.2055 104.5013,54.3415 104.2363,54.6135 C103.9713,54.8855 103.8383,55.2245 103.8383,55.6305 C103.8383,56.0355 103.9713,56.3765 104.2363,56.6505 C104.5013,56.9255 104.8243,57.0625 105.2063,57.0625 C105.5213,57.0625 105.7893,56.9735 106.0123,56.7935 C106.2343,56.6145 106.3853,56.3515 106.4663,56.0025" id="Fill-27" fill="#94C83D" mask="url(#mask-2)"></path>
                <path d="M110.9204,56.1383 L110.3044,54.5633 L109.6954,56.1383 L110.9204,56.1383 Z M112.9104,58.0293 L111.6504,58.0293 L111.3144,57.1553 L109.2944,57.1553 L108.9584,58.0293 L107.6914,58.0293 L109.6954,53.2323 L110.9054,53.2323 L112.9104,58.0293 Z" id="Fill-28" fill="#94C83D" mask="url(#mask-2)"></path>
                <path d="M115.0884,53.1246 C115.6124,53.1246 116.0524,53.2466 116.4054,53.4926 C116.7584,53.7386 116.9814,54.0786 117.0714,54.5136 L115.9114,54.7496 C115.8684,54.5346 115.7684,54.3686 115.6104,54.2516 C115.4534,54.1356 115.2744,54.0766 115.0734,54.0766 C114.8824,54.0766 114.7274,54.1226 114.6084,54.2166 C114.4884,54.3096 114.4294,54.4256 114.4294,54.5626 C114.4294,54.7726 114.5584,54.9066 114.8164,54.9646 L115.8114,55.1866 C116.6894,55.3826 117.1284,55.8476 117.1284,56.5826 C117.1284,57.0736 116.9404,57.4556 116.5634,57.7286 C116.1864,58.0006 115.7154,58.1366 115.1524,58.1366 C114.5944,58.1366 114.1194,58.0086 113.7314,57.7536 C113.3424,57.4976 113.1164,57.1416 113.0544,56.6836 L114.2724,56.4466 C114.3864,56.9196 114.7014,57.1546 115.2174,57.1546 C115.4364,57.1546 115.6094,57.1096 115.7354,57.0196 C115.8624,56.9286 115.9254,56.8096 115.9254,56.6616 C115.9254,56.5466 115.8934,56.4556 115.8284,56.3896 C115.7644,56.3226 115.6494,56.2716 115.4824,56.2386 L114.4794,56.0236 C113.6204,55.8286 113.1914,55.3646 113.1914,54.6356 C113.1914,54.1726 113.3644,53.8046 113.7134,53.5316 C114.0624,53.2606 114.5204,53.1246 115.0884,53.1246" id="Fill-29" fill="#94C83D" mask="url(#mask-2)"></path>
                <path d="M56.0952,60.8463 L55.0782,60.8463 L55.5872,59.7573 L56.9482,59.7573 L56.0952,60.8463 Z M57.7352,61.3123 L57.7352,63.9473 C57.7352,64.6343 57.5402,65.1843 57.1522,65.5973 C56.7622,66.0103 56.2472,66.2163 55.6092,66.2163 C54.9542,66.2163 54.4282,66.0103 54.0302,65.5973 C53.6312,65.1843 53.4322,64.6343 53.4322,63.9473 L53.4322,61.3123 L54.6132,61.3123 L54.6132,63.9473 C54.6132,64.3093 54.7032,64.5973 54.8852,64.8093 C55.0672,65.0223 55.3082,65.1283 55.6092,65.1283 C55.8952,65.1283 56.1232,65.0223 56.2952,64.8093 C56.4672,64.5973 56.5532,64.3093 56.5532,63.9473 L56.5532,61.3123 L57.7352,61.3123 Z" id="Fill-30" fill="#94C83D" mask="url(#mask-2)"></path>
                <polygon id="Fill-31" fill="#94C83D" mask="url(#mask-2)" points="63.1343 61.3121 63.1343 66.1091 62.1603 66.1091 59.7333 63.3311 59.7333 66.1091 58.5513 66.1091 58.5513 61.3121 59.5323 61.3121 61.9593 64.1751 61.9593 61.3121"></polygon>
                <polygon id="Fill-32" fill="#94C83D" mask="url(#mask-2)" points="63.971 66.1094 65.153 66.1094 65.153 61.3124 63.971 61.3124"></polygon>
                <path d="M69.6274,64.0826 L70.7874,64.3116 C70.6784,64.9036 70.4034,65.3686 69.9644,65.7076 C69.5244,66.0476 68.9924,66.2166 68.3674,66.2166 C67.6554,66.2166 67.0534,65.9756 66.5594,65.4926 C66.0654,65.0116 65.8184,64.4166 65.8184,63.7106 C65.8184,63.0086 66.0654,62.4156 66.5594,61.9316 C67.0534,61.4466 67.6554,61.2046 68.3674,61.2046 C68.9694,61.2046 69.4924,61.3716 69.9394,61.7056 C70.3854,62.0396 70.6654,62.4856 70.7804,63.0446 L69.6204,63.3166 C69.5494,62.9776 69.4014,62.7216 69.1804,62.5466 C68.9584,62.3726 68.6874,62.2856 68.3674,62.2856 C67.9854,62.2856 67.6624,62.4216 67.3974,62.6936 C67.1324,62.9656 66.9994,63.3046 66.9994,63.7106 C66.9994,64.1156 67.1324,64.4566 67.3974,64.7306 C67.6624,65.0056 67.9854,65.1426 68.3674,65.1426 C68.6824,65.1426 68.9504,65.0536 69.1734,64.8736 C69.3954,64.6946 69.5464,64.4316 69.6274,64.0826" id="Fill-33" fill="#94C83D" mask="url(#mask-2)"></path>
                <path d="M74.0815,64.2184 L73.4655,62.6434 L72.8565,64.2184 L74.0815,64.2184 Z M76.0715,66.1094 L74.8115,66.1094 L74.4755,65.2354 L72.4555,65.2354 L72.1195,66.1094 L70.8525,66.1094 L72.8565,61.3124 L74.0665,61.3124 L76.0715,66.1094 Z" id="Fill-34" fill="#94C83D" mask="url(#mask-2)"></path>
                <path d="M78.2495,61.2047 C78.7735,61.2047 79.2135,61.3267 79.5665,61.5727 C79.9195,61.8187 80.1425,62.1587 80.2325,62.5937 L79.0725,62.8297 C79.0295,62.6147 78.9295,62.4487 78.7715,62.3317 C78.6145,62.2157 78.4355,62.1567 78.2345,62.1567 C78.0435,62.1567 77.8885,62.2027 77.7695,62.2967 C77.6495,62.3897 77.5905,62.5057 77.5905,62.6427 C77.5905,62.8527 77.7195,62.9867 77.9775,63.0447 L78.9725,63.2667 C79.8505,63.4627 80.2895,63.9277 80.2895,64.6627 C80.2895,65.1537 80.1015,65.5357 79.7245,65.8087 C79.3475,66.0807 78.8765,66.2167 78.3135,66.2167 C77.7555,66.2167 77.2805,66.0887 76.8925,65.8337 C76.5035,65.5777 76.2775,65.2217 76.2155,64.7637 L77.4335,64.5267 C77.5475,64.9997 77.8625,65.2347 78.3785,65.2347 C78.5975,65.2347 78.7705,65.1897 78.8965,65.0997 C79.0235,65.0087 79.0865,64.8897 79.0865,64.7417 C79.0865,64.6267 79.0545,64.5357 78.9895,64.4697 C78.9255,64.4027 78.8105,64.3517 78.6435,64.3187 L77.6405,64.1037 C76.7815,63.9087 76.3525,63.4447 76.3525,62.7157 C76.3525,62.2527 76.5255,61.8847 76.8745,61.6117 C77.2235,61.3407 77.6815,61.2047 78.2495,61.2047" id="Fill-35" fill="#94C83D" mask="url(#mask-2)"></path>
                <path d="M60.6958,29.773 L68.3398,29.773 C68.3938,30.215 68.4218,30.636 68.4218,31.037 C68.4218,33.135 67.7448,34.865 66.3918,36.225 C65.0388,37.585 63.3188,38.265 61.2338,38.265 C59.1348,38.265 57.3638,37.568 55.9218,36.173 C54.4778,34.779 53.7568,33.059 53.7568,31.015 C53.7568,28.986 54.4708,27.27 55.9008,25.869 C57.3298,24.467 59.0868,23.766 61.1728,23.766 C62.7598,23.766 64.1688,24.128 65.3978,24.853 C66.6268,25.579 67.4758,26.604 67.9458,27.929 L64.6518,28.882 C63.9748,27.556 62.8148,26.894 61.1728,26.894 C60.0398,26.894 59.0928,27.288 58.3348,28.075 C57.5748,28.862 57.1948,29.842 57.1948,31.015 C57.1948,32.19 57.5858,33.173 58.3658,33.967 C59.1448,34.761 60.1158,35.159 61.2758,35.159 C62.1738,35.159 62.9428,34.938 63.5858,34.496 C64.2268,34.053 64.6788,33.446 64.9418,32.672 L60.6958,32.672 L60.6958,29.773 Z" id="Fill-36" fill="#2C2926" mask="url(#mask-2)"></path>
                <path d="M75.4233,35.4488 C76.0993,35.4488 76.6873,35.1968 77.1843,34.6918 C77.6813,34.1878 77.9293,33.5428 77.9293,32.7558 C77.9293,31.9688 77.6773,31.3228 77.1733,30.8188 C76.6693,30.3148 76.0863,30.0628 75.4233,30.0628 C74.7333,30.0628 74.1313,30.3148 73.6203,30.8188 C73.1103,31.3228 72.8553,31.9688 72.8553,32.7558 C72.8553,33.5428 73.1073,34.1878 73.6113,34.6918 C74.1143,35.1968 74.7193,35.4488 75.4233,35.4488 M75.4233,27.2878 C77.0113,27.2878 78.3573,27.7988 79.4623,28.8198 C80.5673,29.8428 81.1193,31.1538 81.1193,32.7558 C81.1193,34.3718 80.5673,35.6898 79.4623,36.7118 C78.3573,37.7338 77.0113,38.2448 75.4233,38.2448 C73.8073,38.2448 72.4443,37.7338 71.3323,36.7118 C70.2203,35.6898 69.6643,34.3718 69.6643,32.7558 C69.6643,31.1538 70.2203,29.8428 71.3323,28.8198 C72.4443,27.7988 73.8073,27.2878 75.4233,27.2878" id="Fill-37" fill="#2C2926" mask="url(#mask-2)"></path>
                <path d="M93.2368,27.5562 L93.2368,37.9542 L89.9228,37.9542 L89.9228,36.9602 C89.0938,37.8302 88.0308,38.2652 86.7328,38.2652 C85.5168,38.2652 84.5408,37.8692 83.8008,37.0752 C83.0628,36.2812 82.6938,35.2342 82.6938,33.9362 L82.6938,27.5562 L85.9868,27.5562 L85.9868,33.2322 C85.9868,33.8392 86.1528,34.3332 86.4838,34.7132 C86.8158,35.0932 87.2438,35.2832 87.7678,35.2832 C88.4448,35.2832 88.9728,35.0442 89.3528,34.5682 C89.7328,34.0912 89.9228,33.3642 89.9228,32.3822 L89.9228,27.5562 L93.2368,27.5562 Z" id="Fill-38" fill="#2C2926" mask="url(#mask-2)"></path>
                <path d="M102.5366,27.4117 C102.8126,27.4117 103.0616,27.4387 103.2826,27.4947 L103.1376,30.8077 L102.5366,30.8077 C100.1476,30.8077 98.9536,32.1067 98.9536,34.7027 L98.9536,37.9547 L95.6396,37.9547 L95.6396,27.5567 L98.9536,27.5567 L98.9536,29.5457 C99.8086,28.1227 101.0046,27.4117 102.5366,27.4117" id="Fill-39" fill="#2C2926" mask="url(#mask-2)"></path>
                <path d="M118.1548,27.2457 C119.2868,27.2457 120.2328,27.6367 120.9928,28.4167 C121.7518,29.1967 122.1318,30.2077 122.1318,31.4507 L122.1318,37.9547 L118.8388,37.9547 L118.8388,32.1547 C118.8388,31.5747 118.6728,31.1087 118.3418,30.7567 C118.0098,30.4047 117.5948,30.2277 117.0978,30.2277 C116.4768,30.2277 115.9828,30.4527 115.6178,30.9017 C115.2518,31.3497 115.0688,32.0037 115.0688,32.8587 L115.0688,37.9547 L111.7548,37.9547 L111.7548,32.1547 C111.7548,31.5747 111.5888,31.1087 111.2578,30.7567 C110.9258,30.4047 110.5048,30.2277 109.9938,30.2277 C109.3728,30.2277 108.8848,30.4527 108.5338,30.9017 C108.1808,31.3497 108.0058,32.0037 108.0058,32.8587 L108.0058,37.9547 L104.6908,37.9547 L104.6908,27.5567 L108.0058,27.5567 L108.0058,28.5097 C108.7638,27.6677 109.7868,27.2457 111.0708,27.2457 C112.6038,27.2457 113.7358,27.8327 114.4678,29.0067 C115.3658,27.8327 116.5938,27.2457 118.1548,27.2457" id="Fill-40" fill="#2C2926" mask="url(#mask-2)"></path>
                <path d="M129.2153,29.9391 C128.7323,29.9391 128.2833,30.0841 127.8693,30.3741 C127.4543,30.6641 127.1713,31.0641 127.0203,31.5751 L131.3083,31.5751 C131.1553,31.0371 130.8933,30.6291 130.5213,30.3531 C130.1483,30.0771 129.7123,29.9391 129.2153,29.9391 M134.5803,32.7551 L134.5803,33.6051 L126.9573,33.6051 C127.0953,34.2261 127.3643,34.7161 127.7663,35.0761 C128.1653,35.4351 128.6423,35.6141 129.1943,35.6141 C130.2313,35.6141 130.9693,35.2131 131.4113,34.4131 L134.3523,35.0131 C133.9103,36.0901 133.2443,36.9021 132.3543,37.4471 C131.4633,37.9931 130.4093,38.2651 129.1943,38.2651 C127.6613,38.2651 126.3633,37.7511 125.3003,36.7221 C124.2363,35.6941 123.7053,34.3721 123.7053,32.7551 C123.7053,31.1541 124.2363,29.8351 125.3003,28.7991 C126.3633,27.7631 127.6683,27.2461 129.2153,27.2461 C130.7203,27.2461 131.9843,27.7511 133.0063,28.7581 C134.0273,29.7661 134.5523,31.0981 134.5803,32.7551" id="Fill-41" fill="#2C2926" mask="url(#mask-2)"></path>
                <path d="M143.2378,34.8893 L144.0048,37.4983 C143.0508,38.0093 142.1048,38.2653 141.1668,38.2653 C139.8538,38.2653 138.8358,37.9133 138.1108,37.2083 C137.3858,36.5043 137.0238,35.4763 137.0238,34.1223 L137.0238,30.1873 L135.1378,30.1873 L135.1378,27.5563 L137.0238,27.5563 L137.0238,24.4913 L140.3378,24.4913 L140.3378,27.5563 L143.4028,27.5563 L143.4028,30.1873 L140.3378,30.1873 L140.3378,33.7913 C140.3378,34.7993 140.7998,35.3033 141.7248,35.3033 C142.2508,35.3033 142.7548,35.1653 143.2378,34.8893" id="Fill-42" fill="#2C2926" mask="url(#mask-2)"></path>
                <polygon id="Fill-43" fill="#2C2926" mask="url(#mask-2)" points="69.6616 4.6275 63.1706 19.8425 59.6856 19.8425 53.2076 4.6275 57.1966 4.6275 61.4166 14.8895 65.6736 4.6275"></polygon>
                <path d="M71.016,19.8424 L74.522,19.8424 L74.522,8.8404 L71.016,8.8404 L71.016,19.8424 Z M71.323,4.1834 C71.703,3.7964 72.185,3.6024 72.77,3.6024 C73.354,3.6024 73.839,3.7994 74.227,4.1944 C74.614,4.5884 74.808,5.0564 74.808,5.5974 C74.808,6.1524 74.614,6.6154 74.227,6.9884 C73.839,7.3614 73.354,7.5474 72.77,7.5474 C72.185,7.5474 71.703,7.3614 71.323,6.9884 C70.943,6.6154 70.753,6.1524 70.753,5.5974 C70.753,5.0414 70.943,4.5704 71.323,4.1834 L71.323,4.1834 Z" id="Fill-44" fill="#2C2926" mask="url(#mask-2)"></path>
                <path d="M81.7983,6.4293 C81.4183,6.4293 81.1923,6.6703 81.1193,7.1533 L78.9933,7.1533 C78.9933,6.0423 79.2413,5.2093 79.7383,4.6543 C80.2353,4.0993 80.8263,3.8223 81.5133,3.8223 C82.0253,3.8223 82.5283,3.9563 83.0263,4.2273 C83.5223,4.4973 83.9023,4.6323 84.1653,4.6323 C84.5453,4.6323 84.7713,4.3693 84.8443,3.8433 L86.9703,3.8433 C86.9703,4.9833 86.7253,5.8303 86.2363,6.3853 C85.7463,6.9413 85.1443,7.2183 84.4283,7.2183 C83.9173,7.2183 83.4163,7.0873 82.9273,6.8243 C82.4373,6.5613 82.0613,6.4293 81.7983,6.4293 M84.1213,8.5113 C85.4073,8.5113 86.4413,8.9313 87.2223,9.7723 C88.0043,10.6123 88.3953,11.7193 88.3953,13.0923 L88.3953,19.8423 L84.9103,19.8423 L84.9103,13.8373 C84.9103,13.1943 84.7353,12.6723 84.3843,12.2703 C84.0333,11.8683 83.5813,11.6673 83.0263,11.6673 C82.3093,11.6673 81.7513,11.9193 81.3493,12.4233 C80.9473,12.9273 80.7463,13.6993 80.7463,14.7363 L80.7463,19.8423 L77.2403,19.8423 L77.2403,8.8403 L80.7463,8.8403 L80.7463,9.8923 C81.6233,8.9723 82.7483,8.5113 84.1213,8.5113" id="Fill-45" fill="#2C2926" mask="url(#mask-2)"></path>
                <path d="M96.1533,17.19 C96.8833,17.19 97.5153,16.923 98.0493,16.39 C98.5823,15.857 98.8483,15.173 98.8483,14.341 C98.8483,13.523 98.5823,12.843 98.0493,12.303 C97.5153,11.762 96.8833,11.492 96.1533,11.492 C95.3783,11.492 94.7433,11.758 94.2463,12.292 C93.7493,12.826 93.5013,13.508 93.5013,14.341 C93.5013,15.189 93.7493,15.876 94.2463,16.401 C94.7433,16.927 95.3783,17.19 96.1533,17.19 L96.1533,17.19 Z M102.3553,8.84 L102.3553,19.842 L98.8483,19.842 L98.8483,18.965 C97.9573,19.769 96.8183,20.17 95.4303,20.17 C93.9403,20.17 92.6723,19.627 91.6273,18.538 C90.5833,17.45 90.0603,16.05 90.0603,14.341 C90.0603,12.646 90.5833,11.252 91.6273,10.156 C92.6723,9.059 93.9403,8.511 95.4303,8.511 C96.8183,8.511 97.9573,8.914 98.8483,9.717 L98.8483,8.84 L102.3553,8.84 Z" id="Fill-46" fill="#2C2926" mask="url(#mask-2)"></path>
                <polygon id="Fill-47" fill="#2C2926" mask="url(#mask-2)" points="104.898 19.8424 108.404 19.8424 108.404 4.5734 104.898 4.5734"></polygon>
                <path d="M110.2007,16.9713 L113.6197,16.2703 C113.7657,17.1323 114.4157,17.5633 115.5707,17.5633 C116.0087,17.5633 116.3557,17.4793 116.6117,17.3113 C116.8667,17.1433 116.9947,16.9353 116.9947,16.6863 C116.9947,16.2773 116.6297,16.0063 115.8987,15.8753 L113.6637,15.4373 C111.5307,15.0423 110.4637,13.9763 110.4637,12.2373 C110.4637,11.1123 110.9017,10.2103 111.7787,9.5313 C112.6557,8.8513 113.7947,8.5113 115.1977,8.5113 C116.5417,8.5113 117.6557,8.7963 118.5397,9.3663 C119.4237,9.9363 119.9747,10.7033 120.1947,11.6673 L116.9947,12.3033 C116.9357,11.9383 116.7427,11.6313 116.4137,11.3823 C116.0847,11.1343 115.6647,11.0103 115.1537,11.0103 C114.7157,11.0103 114.3977,11.0943 114.2007,11.2623 C114.0037,11.4303 113.9047,11.6313 113.9047,11.8653 C113.9047,12.2593 114.1817,12.5153 114.7377,12.6313 L117.3237,13.1583 C118.3317,13.3763 119.0907,13.7753 119.6027,14.3523 C120.1137,14.9293 120.3697,15.6343 120.3697,16.4673 C120.3697,17.6503 119.9087,18.5643 118.9887,19.2063 C118.0687,19.8493 116.8637,20.1703 115.3727,20.1703 C113.9847,20.1703 112.8197,19.9043 111.8777,19.3703 C110.9347,18.8373 110.3757,18.0373 110.2007,16.9713" id="Fill-48" fill="#2C2926" mask="url(#mask-2)"></path>
                <path d="M20.7285,9.1793 C20.7195,9.0803 20.7135,8.9803 20.7115,8.8783 C20.7115,8.8663 20.7095,8.8523 20.7095,8.8393 C20.7095,8.8313 20.7095,8.8253 20.7095,8.8193 C20.7095,8.7993 20.7075,8.7823 20.7085,8.7623 C20.7085,8.6473 20.7125,8.5333 20.7195,8.4213 C20.7215,8.3903 20.7245,8.3603 20.7275,8.3293 C20.8385,6.9083 21.4965,5.7213 22.5615,4.8483 L22.5615,4.6463 L-0.0005,4.6463 L-0.0005,4.8593 C0.8895,5.2303 3.1555,6.4833 5.1225,10.8543 C5.1225,10.8543 25.6415,55.7373 25.8185,56.1273 L33.0705,38.2203 C33.0705,38.2203 22.2525,14.1853 21.8625,13.2953 C21.1335,11.6333 20.8065,10.2813 20.7285,9.1793" id="Fill-49" fill="#94C83D" mask="url(#mask-2)"></path>
                <path d="M36.3867,23.9059 C36.3277,23.6629 36.3267,23.3589 36.2827,22.7939 C36.2827,22.7889 36.2807,22.7839 36.2797,22.7789 C36.2717,22.6969 36.2617,22.6159 36.2447,22.5339 C36.0267,21.4669 35.0537,20.7639 34.0727,20.9659 C33.0917,21.1669 32.4727,22.1949 32.6917,23.2609 C32.7067,23.3369 32.7267,23.4089 32.7497,23.4799 C32.7497,23.4809 32.7497,23.4819 32.7497,23.4829 C32.7527,23.4899 32.7557,23.4969 32.7587,23.5049 C32.7767,23.5609 32.7977,23.6169 32.8207,23.6709 C33.4387,25.2429 36.0097,26.0899 39.0727,25.6789 L39.0327,25.4879 C37.8287,25.5689 36.5757,24.8299 36.3867,23.9059" id="Fill-50" fill="#94C83D" mask="url(#mask-2)"></path>
                <path d="M44.4824,2.7164 C44.7084,2.8244 44.9434,3.0164 45.4094,3.3394 C45.4144,3.3434 45.4194,3.3444 45.4244,3.3464 C45.4914,3.3924 45.5614,3.4364 45.6354,3.4754 C46.6004,3.9804 47.7594,3.6704 48.2244,2.7834 C48.6894,1.8964 48.2834,0.7674 47.3184,0.2624 C47.2514,0.2264 47.1824,0.1954 47.1134,0.1684 C47.1124,0.1684 47.1114,0.1674 47.1104,0.1674 C47.1034,0.1644 47.0954,0.1624 47.0884,0.1594 C47.0334,0.1384 46.9774,0.1184 46.9204,0.1034 C45.3114,-0.4116 43.0294,1.0434 41.4104,3.6754 L41.5834,3.7664 C42.2824,2.7814 43.6474,2.2794 44.4824,2.7164" id="Fill-51" fill="#94C83D" mask="url(#mask-2)"></path>
                <path d="M46.5698,9.2623 C46.5698,5.5793 43.1138,4.2203 40.0828,4.1353 L40.0828,4.3053 C41.4428,4.4183 42.0378,5.8923 42.0378,9.1773 C42.0378,12.5763 41.4708,13.9923 40.0828,14.1063 L40.0828,14.2763 C41.8108,14.2763 43.3118,13.8513 44.6148,13.0303 C45.9178,12.2083 46.5698,10.9343 46.5698,9.2623" id="Fill-52" fill="#94C83D" mask="url(#mask-2)"></path>
                <path d="M40.9609,16.6275 C37.7319,16.3445 34.5029,16.5145 34.5029,14.8985 C34.5029,14.6445 34.5879,14.4745 34.7579,14.3605 L34.6729,14.2195 C33.3979,15.0125 32.7749,15.9765 32.7749,17.1085 C32.7179,20.0255 36.7969,20.2245 39.9129,20.3945 C42.0939,20.5925 43.8219,21.1595 43.8219,22.6045 C43.8219,23.8505 42.6609,25.1825 40.0829,25.4935 L40.0829,25.6635 C44.8419,25.4085 47.4189,23.5105 47.4189,20.5655 C47.4189,17.5055 44.1619,16.8255 40.9609,16.6275" id="Fill-53" fill="#94C83D" mask="url(#mask-2)"></path>
                <path d="M35.9473,13.8228 C36.8823,14.1348 37.8453,14.2758 38.8933,14.2758 L38.8933,14.1058 C37.6473,13.9928 37.1093,12.5768 37.1093,9.1768 C37.1093,6.0338 37.7033,4.4188 38.8933,4.3048 L38.8933,4.1348 C37.2223,4.1638 35.7203,4.6168 34.4463,5.4668 C33.1713,6.3168 32.5483,7.5918 32.5483,9.2618 C32.5483,11.5568 34.1353,13.1718 35.9473,13.8228" id="Fill-54" fill="#94C83D" mask="url(#mask-2)"></path>
            </g>
        </g>
    </g>
</svg>