<?xml version="1.0" encoding="UTF-8"?>
<svg width="48px" height="49px" viewBox="0 0 48 49" version="1.1" xmlns="http://www.w3.org/2000/svg" xmlns:xlink="http://www.w3.org/1999/xlink">
    <title>􀀻</title>
    <g id="Page-1" stroke="none" stroke-width="1" fill="none" fill-rule="evenodd">
        <g id="VG-VIÑALS" transform="translate(-220.000000, -1445.000000)" fill="#94C83D" fill-rule="nonzero">
            <path d="M244.000488,1493.05566 C247.255697,1493.05566 250.315592,1492.43311 253.180176,1491.18799 C256.044759,1489.94287 258.567546,1488.22982 260.748535,1486.04883 C262.929525,1483.86784 264.638509,1481.34912 265.875488,1478.49268 C267.112467,1475.63623 267.730957,1472.5804 267.730957,1469.3252 C267.730957,1466.06999 267.112467,1463.01416 265.875488,1460.15771 C264.638509,1457.30127 262.925456,1454.77848 260.736328,1452.58936 C258.547201,1450.40023 256.020345,1448.68717 253.155762,1447.4502 C250.291178,1446.21322 247.231283,1445.59473 243.976074,1445.59473 C240.753418,1445.59473 237.709798,1446.21322 234.845215,1447.4502 C231.980632,1448.68717 229.453776,1450.40023 227.264648,1452.58936 C225.075521,1454.77848 223.362467,1457.30127 222.125488,1460.15771 C220.888509,1463.01416 220.27002,1466.06999 220.27002,1469.3252 C220.27002,1472.5804 220.892578,1475.63623 222.137695,1478.49268 C223.382812,1481.34912 225.095866,1483.86784 227.276855,1486.04883 C229.457845,1488.22982 231.980632,1489.94287 234.845215,1491.18799 C237.709798,1492.43311 240.761556,1493.05566 244.000488,1493.05566 Z M245.27002,1480.18945 C244.618978,1480.18945 244.106283,1479.986 243.731934,1479.5791 C243.357585,1479.1722 243.17041,1478.5944 243.17041,1477.8457 L243.17041,1462.92871 L242.975098,1462.92871 L240.020996,1464.88184 C239.728027,1465.09342 239.500163,1465.22363 239.337402,1465.27246 C239.174642,1465.32129 238.987467,1465.3457 238.775879,1465.3457 C238.352702,1465.3457 237.998698,1465.18701 237.713867,1464.86963 C237.429036,1464.55225 237.286621,1464.1901 237.286621,1463.7832 C237.286621,1463.44141 237.355794,1463.15658 237.494141,1462.92871 C237.632487,1462.70085 237.848145,1462.48112 238.141113,1462.26953 L242.340332,1459.41309 C242.893717,1459.03874 243.373861,1458.77832 243.780762,1458.63184 C244.187663,1458.48535 244.643392,1458.41211 245.147949,1458.41211 C245.864095,1458.41211 246.429688,1458.6237 246.844727,1459.04688 C247.259766,1459.47005 247.467285,1460.04785 247.467285,1460.78027 L247.467285,1477.8457 C247.467285,1478.5944 247.271973,1479.1722 246.881348,1479.5791 C246.490723,1479.986 245.953613,1480.18945 245.27002,1480.18945 Z" id="􀀻"></path>
        </g>
    </g>
</svg>