<?xml version="1.0" encoding="UTF-8"?>
<svg width="48px" height="49px" viewBox="0 0 48 49" version="1.1" xmlns="http://www.w3.org/2000/svg" xmlns:xlink="http://www.w3.org/1999/xlink">
    <title>􀀽</title>
    <g id="Page-1" stroke="none" stroke-width="1" fill="none" fill-rule="evenodd">
        <g id="VG-VIÑALS" transform="translate(-454.000000, -1445.000000)" fill="#94C83D" fill-rule="nonzero">
            <path d="M478.000488,1493.05566 C481.255697,1493.05566 484.315592,1492.43311 487.180176,1491.18799 C490.044759,1489.94287 492.567546,1488.22982 494.748535,1486.04883 C496.929525,1483.86784 498.638509,1481.34912 499.875488,1478.49268 C501.112467,1475.63623 501.730957,1472.5804 501.730957,1469.3252 C501.730957,1466.06999 501.112467,1463.01416 499.875488,1460.15771 C498.638509,1457.30127 496.925456,1454.77848 494.736328,1452.58936 C492.547201,1450.40023 490.020345,1448.68717 487.155762,1447.4502 C484.291178,1446.21322 481.231283,1445.59473 477.976074,1445.59473 C474.753418,1445.59473 471.709798,1446.21322 468.845215,1447.4502 C465.980632,1448.68717 463.453776,1450.40023 461.264648,1452.58936 C459.075521,1454.77848 457.362467,1457.30127 456.125488,1460.15771 C454.888509,1463.01416 454.27002,1466.06999 454.27002,1469.3252 C454.27002,1472.5804 454.892578,1475.63623 456.137695,1478.49268 C457.382812,1481.34912 459.095866,1483.86784 461.276855,1486.04883 C463.457845,1488.22982 465.980632,1489.94287 468.845215,1491.18799 C471.709798,1492.43311 474.761556,1493.05566 478.000488,1493.05566 Z M484.787598,1480.14062 L472.580566,1480.14062 C471.994629,1480.14062 471.534831,1479.98193 471.201172,1479.66455 C470.867513,1479.34717 470.700684,1478.91992 470.700684,1478.38281 C470.700684,1478.10612 470.75765,1477.8335 470.871582,1477.56494 C470.985514,1477.29639 471.180827,1477.02376 471.45752,1476.74707 L478.879395,1468.95898 C479.59554,1468.22656 480.242513,1467.49414 480.820312,1466.76172 C481.398112,1466.0293 481.687012,1465.25618 481.687012,1464.44238 C481.687012,1463.51465 481.369629,1462.77002 480.734863,1462.2085 C480.100098,1461.64697 479.245605,1461.36621 478.171387,1461.36621 C477.080892,1461.36621 476.2264,1461.66732 475.60791,1462.26953 C474.989421,1462.87174 474.517415,1463.50651 474.191895,1464.17383 C473.996582,1464.51562 473.760579,1464.80859 473.483887,1465.05273 C473.207194,1465.29688 472.840983,1465.41895 472.385254,1465.41895 C471.848145,1465.41895 471.416829,1465.26839 471.091309,1464.96729 C470.765788,1464.66618 470.603027,1464.25521 470.603027,1463.73438 C470.603027,1463.57161 470.611165,1463.40885 470.627441,1463.24609 C470.643717,1463.08333 470.692546,1462.9043 470.773926,1462.70898 C471.180827,1461.35807 472.067871,1460.23096 473.435059,1459.32764 C474.802246,1458.42432 476.34847,1457.97266 478.07373,1457.97266 C480.3361,1457.97266 482.150879,1458.53825 483.518066,1459.66943 C484.885254,1460.80062 485.568848,1462.27767 485.568848,1464.10059 C485.568848,1465.40267 485.235189,1466.57454 484.567871,1467.61621 C483.900553,1468.65788 483.013509,1469.74023 481.906738,1470.86328 L476.633301,1476.47852 L476.633301,1476.64941 L484.787598,1476.64941 C485.324707,1476.64941 485.760091,1476.79997 486.09375,1477.10107 C486.427409,1477.40218 486.594238,1477.82943 486.594238,1478.38281 C486.594238,1478.91992 486.427409,1479.34717 486.09375,1479.66455 C485.760091,1479.98193 485.324707,1480.14062 484.787598,1480.14062 Z" id="􀀽"></path>
        </g>
    </g>
</svg>