<?xml version="1.0" encoding="UTF-8"?>
<svg width="48px" height="49px" viewBox="0 0 48 49" version="1.1" xmlns="http://www.w3.org/2000/svg" xmlns:xlink="http://www.w3.org/1999/xlink">
    <title>􀀿</title>
    <g id="Page-1" stroke="none" stroke-width="1" fill="none" fill-rule="evenodd">
        <g id="VG-VIÑALS" transform="translate(-688.000000, -1445.000000)" fill="#94C83D" fill-rule="nonzero">
            <path d="M712.000488,1493.05566 C715.255697,1493.05566 718.315592,1492.43311 721.180176,1491.18799 C724.044759,1489.94287 726.567546,1488.22982 728.748535,1486.04883 C730.929525,1483.86784 732.638509,1481.34912 733.875488,1478.49268 C735.112467,1475.63623 735.730957,1472.5804 735.730957,1469.3252 C735.730957,1466.06999 735.112467,1463.01416 733.875488,1460.15771 C732.638509,1457.30127 730.925456,1454.77848 728.736328,1452.58936 C726.547201,1450.40023 724.020345,1448.68717 721.155762,1447.4502 C718.291178,1446.21322 715.231283,1445.59473 711.976074,1445.59473 C708.753418,1445.59473 705.709798,1446.21322 702.845215,1447.4502 C699.980632,1448.68717 697.453776,1450.40023 695.264648,1452.58936 C693.075521,1454.77848 691.362467,1457.30127 690.125488,1460.15771 C688.888509,1463.01416 688.27002,1466.06999 688.27002,1469.3252 C688.27002,1472.5804 688.892578,1475.63623 690.137695,1478.49268 C691.382812,1481.34912 693.095866,1483.86784 695.276855,1486.04883 C697.457845,1488.22982 699.980632,1489.94287 702.845215,1491.18799 C705.709798,1492.43311 708.761556,1493.05566 712.000488,1493.05566 Z M711.878418,1480.65332 C709.892741,1480.65332 708.179688,1480.23421 706.739258,1479.396 C705.298828,1478.55778 704.399577,1477.45508 704.041504,1476.08789 C703.943848,1475.74609 703.89502,1475.42057 703.89502,1475.11133 C703.89502,1474.59049 704.065918,1474.16325 704.407715,1473.82959 C704.749512,1473.49593 705.197103,1473.3291 705.750488,1473.3291 C706.580566,1473.3291 707.174642,1473.75228 707.532715,1474.59863 C707.825684,1475.37988 708.330241,1476.02686 709.046387,1476.53955 C709.762533,1477.05225 710.730957,1477.30859 711.95166,1477.30859 C713.237467,1477.30859 714.279134,1477.00749 715.07666,1476.40527 C715.874186,1475.80306 716.272949,1474.9974 716.272949,1473.98828 C716.272949,1473.01172 715.878255,1472.21012 715.088867,1471.5835 C714.299479,1470.95687 713.27002,1470.64355 712.000488,1470.64355 L710.535645,1470.64355 C710.031087,1470.64355 709.620117,1470.48893 709.302734,1470.17969 C708.985352,1469.87044 708.82666,1469.47982 708.82666,1469.00781 C708.82666,1468.51953 708.985352,1468.12484 709.302734,1467.82373 C709.620117,1467.52262 710.031087,1467.37207 710.535645,1467.37207 L711.902832,1467.37207 C712.977051,1467.37207 713.860026,1467.07503 714.551758,1466.48096 C715.24349,1465.88688 715.589355,1465.11784 715.589355,1464.17383 C715.589355,1463.27865 715.263835,1462.57471 714.612793,1462.06201 C713.961751,1461.54932 713.082845,1461.29297 711.976074,1461.29297 C710.934408,1461.29297 710.067708,1461.53711 709.375977,1462.02539 C708.684245,1462.51367 708.208171,1463.18099 707.947754,1464.02734 C707.605957,1464.8737 707.011882,1465.29688 706.165527,1465.29688 C705.628418,1465.29688 705.188965,1465.13818 704.847168,1464.8208 C704.505371,1464.50342 704.334473,1464.07617 704.334473,1463.53906 C704.334473,1463.36003 704.342611,1463.1932 704.358887,1463.03857 C704.375163,1462.88395 704.407715,1462.71712 704.456543,1462.53809 C704.782064,1461.13835 705.636556,1460.02751 707.02002,1459.20557 C708.403483,1458.38363 710.079915,1457.97266 712.049316,1457.97266 C714.246582,1457.97266 716.049154,1458.50977 717.457031,1459.58398 C718.864909,1460.6582 719.568848,1462.04167 719.568848,1463.73438 C719.568848,1464.95508 719.161947,1466.04557 718.348145,1467.00586 C717.534342,1467.96615 716.525228,1468.53581 715.320801,1468.71484 L715.320801,1468.91016 C716.769368,1469.04036 717.961589,1469.60596 718.897461,1470.60693 C719.833333,1471.60791 720.30127,1472.80013 720.30127,1474.18359 C720.30127,1476.08789 719.548503,1477.64225 718.042969,1478.84668 C716.537435,1480.05111 714.482585,1480.65332 711.878418,1480.65332 Z" id="􀀿"></path>
        </g>
    </g>
</svg>