<?xml version="1.0" encoding="UTF-8"?>
<svg width="48px" height="49px" viewBox="0 0 48 49" version="1.1" xmlns="http://www.w3.org/2000/svg" xmlns:xlink="http://www.w3.org/1999/xlink">
    <title>􀘘</title>
    <g id="Page-1" stroke="none" stroke-width="1" fill="none" fill-rule="evenodd">
        <g id="VG-VIÑALS" transform="translate(-922.000000, -1445.000000)" fill="#94C83D" fill-rule="nonzero">
            <path d="M946.000488,1493.05566 C949.255697,1493.05566 952.315592,1492.43311 955.180176,1491.18799 C958.044759,1489.94287 960.567546,1488.22982 962.748535,1486.04883 C964.929525,1483.86784 966.638509,1481.34912 967.875488,1478.49268 C969.112467,1475.63623 969.730957,1472.5804 969.730957,1469.3252 C969.730957,1466.06999 969.112467,1463.01416 967.875488,1460.15771 C966.638509,1457.30127 964.925456,1454.77848 962.736328,1452.58936 C960.547201,1450.40023 958.020345,1448.68717 955.155762,1447.4502 C952.291178,1446.21322 949.231283,1445.59473 945.976074,1445.59473 C942.753418,1445.59473 939.709798,1446.21322 936.845215,1447.4502 C933.980632,1448.68717 931.453776,1450.40023 929.264648,1452.58936 C927.075521,1454.77848 925.362467,1457.30127 924.125488,1460.15771 C922.888509,1463.01416 922.27002,1466.06999 922.27002,1469.3252 C922.27002,1472.5804 922.892578,1475.63623 924.137695,1478.49268 C925.382812,1481.34912 927.095866,1483.86784 929.276855,1486.04883 C931.457845,1488.22982 933.980632,1489.94287 936.845215,1491.18799 C939.709798,1492.43311 942.761556,1493.05566 946.000488,1493.05566 Z M949.711426,1480.21387 C949.125488,1480.21387 948.661621,1480.02669 948.319824,1479.65234 C947.978027,1479.27799 947.807129,1478.74902 947.807129,1478.06543 L947.807129,1475.86816 L939.066895,1475.86816 C938.350749,1475.86816 937.789225,1475.67285 937.382324,1475.28223 C936.975423,1474.8916 936.771973,1474.35449 936.771973,1473.6709 C936.771973,1473.37793 936.812663,1473.08903 936.894043,1472.8042 C936.975423,1472.51937 937.089355,1472.22233 937.23584,1471.91309 C938.065918,1470.46452 938.867513,1469.0485 939.640625,1467.66504 C940.413737,1466.28158 941.190918,1464.89811 941.972168,1463.51465 C942.753418,1462.13118 943.550944,1460.72331 944.364746,1459.29102 C944.592611,1458.88411 944.853027,1458.57487 945.145996,1458.36328 C945.438965,1458.15169 945.797038,1458.0459 946.220215,1458.0459 C946.806152,1458.0459 947.261882,1458.229 947.587402,1458.59521 C947.912923,1458.96143 948.075684,1459.40495 948.075684,1459.92578 C948.075684,1460.13737 948.047201,1460.34082 947.990234,1460.53613 C947.933268,1460.73145 947.847819,1460.95117 947.733887,1461.19531 C947.034017,1462.48112 946.346354,1463.73844 945.670898,1464.96729 L943.644531,1468.65381 L943.644531,1468.65381 C942.969076,1469.88265 942.297689,1471.13184 941.630371,1472.40137 L947.807129,1472.40137 L947.807129,1467.66504 C947.807129,1466.99772 947.978027,1466.47689 948.319824,1466.10254 C948.661621,1465.72819 949.11735,1465.54102 949.687012,1465.54102 C950.305501,1465.54102 950.785645,1465.72819 951.127441,1466.10254 C951.469238,1466.47689 951.640137,1466.99772 951.640137,1467.66504 L951.640137,1472.40137 L953.10498,1472.40137 C953.690918,1472.40137 954.150716,1472.55599 954.484375,1472.86523 C954.818034,1473.17448 954.984863,1473.58138 954.984863,1474.08594 C954.984863,1474.62305 954.818034,1475.05436 954.484375,1475.37988 C954.150716,1475.7054 953.68278,1475.86816 953.080566,1475.86816 L951.640137,1475.86816 L951.640137,1478.06543 C951.640137,1478.7653 951.469238,1479.29834 951.127441,1479.66455 C950.785645,1480.03076 950.313639,1480.21387 949.711426,1480.21387 Z" id="􀘘"></path>
        </g>
    </g>
</svg>