<?xml version="1.0" encoding="UTF-8"?>
<svg width="48px" height="49px" viewBox="0 0 48 49" version="1.1" xmlns="http://www.w3.org/2000/svg" xmlns:xlink="http://www.w3.org/1999/xlink">
    <title>􀁃</title>
    <g id="Page-1" stroke="none" stroke-width="1" fill="none" fill-rule="evenodd">
        <g id="VG-VIÑALS" transform="translate(-1156.000000, -1445.000000)" fill="#94C83D" fill-rule="nonzero">
            <path d="M1180.00049,1493.05566 C1183.2557,1493.05566 1186.31559,1492.43311 1189.18018,1491.18799 C1192.04476,1489.94287 1194.56755,1488.22982 1196.74854,1486.04883 C1198.92952,1483.86784 1200.63851,1481.34912 1201.87549,1478.49268 C1203.11247,1475.63623 1203.73096,1472.5804 1203.73096,1469.3252 C1203.73096,1466.06999 1203.11247,1463.01416 1201.87549,1460.15771 C1200.63851,1457.30127 1198.92546,1454.77848 1196.73633,1452.58936 C1194.5472,1450.40023 1192.02035,1448.68717 1189.15576,1447.4502 C1186.29118,1446.21322 1183.23128,1445.59473 1179.97607,1445.59473 C1176.75342,1445.59473 1173.7098,1446.21322 1170.84521,1447.4502 C1167.98063,1448.68717 1165.45378,1450.40023 1163.26465,1452.58936 C1161.07552,1454.77848 1159.36247,1457.30127 1158.12549,1460.15771 C1156.88851,1463.01416 1156.27002,1466.06999 1156.27002,1469.3252 C1156.27002,1472.5804 1156.89258,1475.63623 1158.1377,1478.49268 C1159.38281,1481.34912 1161.09587,1483.86784 1163.27686,1486.04883 C1165.45785,1488.22982 1167.98063,1489.94287 1170.84521,1491.18799 C1173.7098,1492.43311 1176.76156,1493.05566 1180.00049,1493.05566 Z M1179.80518,1480.65332 C1177.86833,1480.65332 1176.23258,1480.30339 1174.89795,1479.60352 C1173.56331,1478.90365 1172.65999,1477.9515 1172.18799,1476.74707 C1172.00895,1476.35645 1171.91943,1475.95768 1171.91943,1475.55078 C1171.91943,1475.0625 1172.08626,1474.6556 1172.41992,1474.33008 C1172.75358,1474.00456 1173.18083,1473.8418 1173.70166,1473.8418 C1174.10856,1473.8418 1174.46257,1473.93945 1174.76367,1474.13477 C1175.06478,1474.33008 1175.32113,1474.60677 1175.53271,1474.96484 C1175.92334,1475.69727 1176.48893,1476.27507 1177.22949,1476.69824 C1177.97005,1477.12142 1178.81234,1477.33301 1179.75635,1477.33301 C1180.99333,1477.33301 1182.02279,1476.92611 1182.84473,1476.1123 C1183.66667,1475.2985 1184.07764,1474.28125 1184.07764,1473.06055 C1184.07764,1471.82357 1183.71549,1470.82666 1182.99121,1470.06982 C1182.26693,1469.31299 1181.31071,1468.93457 1180.12256,1468.93457 C1179.53662,1468.93457 1179.00765,1469.03223 1178.53564,1469.22754 C1178.06364,1469.42285 1177.55094,1469.74023 1176.99756,1470.17969 C1176.54183,1470.52148 1176.14307,1470.75749 1175.80127,1470.8877 C1175.45947,1471.0179 1175.05257,1471.08301 1174.58057,1471.08301 C1173.84814,1471.08301 1173.27848,1470.85514 1172.87158,1470.39941 C1172.46468,1469.94368 1172.28564,1469.34961 1172.33447,1468.61719 L1172.96924,1460.92676 C1173.01807,1460.19434 1173.29069,1459.6084 1173.78711,1459.16895 C1174.28353,1458.72949 1174.93864,1458.50977 1175.75244,1458.50977 L1185.66455,1458.50977 C1186.16911,1458.50977 1186.56787,1458.66032 1186.86084,1458.96143 C1187.15381,1459.26253 1187.30029,1459.65723 1187.30029,1460.14551 C1187.30029,1460.61751 1187.14974,1461.00407 1186.84863,1461.30518 C1186.54753,1461.60628 1186.15283,1461.75684 1185.66455,1461.75684 L1176.33838,1461.75684 L1175.82568,1467.88477 L1175.99658,1467.88477 C1176.41976,1467.28255 1177.07894,1466.7902 1177.97412,1466.40771 C1178.8693,1466.02523 1179.80518,1465.83398 1180.78174,1465.83398 C1182.96273,1465.83398 1184.73682,1466.49316 1186.104,1467.81152 C1187.47119,1469.12988 1188.15479,1470.84701 1188.15479,1472.96289 C1188.15479,1475.30664 1187.38574,1477.17432 1185.84766,1478.56592 C1184.30957,1479.95752 1182.29541,1480.65332 1179.80518,1480.65332 Z" id="􀁃"></path>
        </g>
    </g>
</svg>