<?xml version="1.0" encoding="UTF-8"?>
<svg width="70px" height="70px" viewBox="0 0 70 70" version="1.1" xmlns="http://www.w3.org/2000/svg" xmlns:xlink="http://www.w3.org/1999/xlink">
    <title>ICON DESPERDICIO ANIMAL</title>
    <defs>
        <polygon id="path-1" points="0 0 69.9998444 0 69.9998444 69.9998444 0 69.9998444"></polygon>
    </defs>
    <g id="Page-1" stroke="none" stroke-width="1" fill="none" fill-rule="evenodd">
        <g id="VG-MISION" transform="translate(-1068.000000, -2143.000000)">
            <g id="ICON-DESPERDICIO-ANIMAL" transform="translate(1068.000000, 2143.000000)">
                <path d="M34.9998444,50.9017444 C35.8585111,50.9017444 36.5554,50.2048556 36.5554,49.3461889 L36.5554,38.8570778 L33.4442889,41.9681889 L33.4442889,49.3469667 C33.4442889,50.2048556 34.1411778,50.9017444 34.9998444,50.9017444" id="Fill-1" fill="#020303"></path>
                <path d="M46.5703778,28.8414 L46.5703778,51.1978444 C46.5703778,52.6468444 45.3912667,53.8259556 43.9422667,53.8259556 L26.0580444,53.8259556 C24.8470444,53.8259556 23.8343778,52.9984 23.5310444,51.8807333 L21.1883778,54.2234 C22.2018222,55.8512889 24.0039333,56.9370667 26.0580444,56.9370667 L43.9422667,56.9370667 C47.1070444,56.9370667 49.6814889,54.3626222 49.6814889,51.1978444 L49.6814889,26.8588444 L49.9786,26.8588444 C50.8372667,26.8588444 51.5341556,26.1619556 51.5341556,25.3032889 L51.5341556,23.8776222 L46.5703778,28.8414 Z" id="Fill-3" fill="#020303"></path>
                <g id="Group-7">
                    <mask id="mask-2" fill="white">
                        <use xlink:href="#path-1"></use>
                    </mask>
                    <g id="Clip-6"></g>
                    <path d="M34.9998444,66.8887333 C26.7662889,66.8887333 19.2521778,63.7519556 13.5884,58.6108444 L14.7146222,57.4846222 C14.7651778,57.3951778 14.8095111,57.3026222 14.8857333,57.2264 L56.2736222,15.8385111 C56.3498444,15.7622889 56.4431778,15.7171778 56.5326222,15.6666222 L58.6108444,13.5884 C63.7519556,19.2521778 66.8887333,26.7662889 66.8887333,34.9998444 C66.8887333,52.5830667 52.5830667,66.8887333 34.9998444,66.8887333 L34.9998444,66.8887333 Z M31.4360667,16.5035111 L31.4360667,15.7070667 C31.4360667,14.9712889 32.0341778,14.3731778 32.7699556,14.3731778 L37.2289556,14.3731778 C37.9647333,14.3731778 38.5628444,14.9712889 38.5628444,15.7070667 L38.5628444,16.5035111 L31.4360667,16.5035111 Z M21.8740667,23.7477333 L21.5769556,23.7477333 L21.5769556,22.6277333 C21.5769556,20.9664 22.9287333,19.6146222 24.5908444,19.6146222 L45.4111778,19.6146222 C46.1811778,19.6146222 46.8772889,19.9132889 47.4108444,20.3908444 L44.0531778,23.7485111 L21.8740667,23.7485111 L21.8740667,23.7477333 Z M34.9998444,28.3778444 C34.1411778,28.3778444 33.4442889,29.0747333 33.4442889,29.9334 L33.4442889,34.3558444 L29.9520667,37.8480667 L29.9520667,29.9334 C29.9520667,29.0747333 29.2551778,28.3778444 28.3965111,28.3778444 C27.5378444,28.3778444 26.8409556,29.0747333 26.8409556,29.9334 L26.8409556,40.9591778 L23.4296222,44.3705111 L23.4296222,26.8588444 L40.9412889,26.8588444 L36.5554,31.2447333 L36.5554,29.9334 C36.5554,29.0747333 35.8585111,28.3778444 34.9998444,28.3778444 L34.9998444,28.3778444 Z M3.11095556,34.9998444 C3.11095556,17.4166222 17.4166222,3.11095556 34.9998444,3.11095556 C43.2334,3.11095556 50.7475111,6.24773333 56.4112889,11.3888444 L49.6142889,18.1858444 C48.5160667,17.1459556 47.0382889,16.5035111 45.4104,16.5035111 L41.6747333,16.5035111 L41.6747333,15.7070667 C41.6747333,13.2562889 39.6812889,11.2620667 37.2297333,11.2620667 L32.7707333,11.2620667 C30.3199556,11.2620667 28.3257333,13.2555111 28.3257333,15.7070667 L28.3257333,16.5035111 L24.5900667,16.5035111 C21.2129556,16.5035111 18.4650667,19.2506222 18.4650667,22.6277333 L18.4650667,25.3032889 C18.4650667,26.1619556 19.1619556,26.8588444 20.0206222,26.8588444 L20.3177333,26.8588444 L20.3177333,47.4816222 L11.3888444,56.4112889 C6.24773333,50.7475111 3.11095556,43.2334 3.11095556,34.9998444 L3.11095556,34.9998444 Z M59.8848444,10.4181778 C59.8420667,10.3614 59.8008444,10.3030667 59.7487333,10.2517333 C59.6966222,10.1996222 59.6390667,10.1584 59.5815111,10.1148444 C53.2566222,3.86617778 44.5719556,-0.000155555556 34.9998444,-0.000155555556 C15.7008444,-0.000155555556 -0.000155555556,15.7008444 -0.000155555556,34.9998444 C-0.000155555556,44.5735111 3.86617778,53.2574 10.1148444,59.5815111 C10.1576222,59.6390667 10.1988444,59.6966222 10.2509556,59.7479556 C10.3030667,59.8008444 10.3606222,59.8412889 10.4181778,59.8840667 C16.7430667,66.1335111 25.4277333,69.9998444 34.9998444,69.9998444 C54.2988444,69.9998444 69.9998444,54.2988444 69.9998444,34.9998444 C69.9998444,25.4269556 66.1335111,16.7430667 59.8848444,10.4181778 L59.8848444,10.4181778 Z" id="Fill-5" fill="#93C73F" mask="url(#mask-2)"></path>
                </g>
                <path d="M41.6033333,50.9017444 C42.462,50.9017444 43.1588889,50.2048556 43.1588889,49.3461889 L43.1588889,32.2529667 L40.0477778,35.3633 L40.0477778,49.3461889 C40.0477778,50.2048556 40.7446667,50.9017444 41.6033333,50.9017444" id="Fill-8" fill="#020303"></path>
                <path d="M28.3966667,50.9017444 C29.2553333,50.9017444 29.9522222,50.2048556 29.9522222,49.3461889 L29.9522222,45.4604111 L26.8411111,48.5715222 L26.8411111,49.3461889 C26.8411111,50.2048556 27.5372222,50.9017444 28.3966667,50.9017444" id="Fill-10" fill="#020303"></path>
            </g>
        </g>
    </g>
</svg>