<?xml version="1.0" encoding="UTF-8"?>
<svg width="73px" height="60px" viewBox="0 0 73 60" version="1.1" xmlns="http://www.w3.org/2000/svg" xmlns:xlink="http://www.w3.org/1999/xlink">
    <title>ICON EXPERTOS</title>
    <defs>
        <polygon id="path-1" points="0.000591138859 2.49157895 50.5677874 2.49157895 50.5677874 56.8406764 0.000591138859 56.8406764"></polygon>
        <polygon id="path-3" points="1.45741358 2.49261077 52.0249095 2.49261077 52.0249095 56.8421053 1.45741358 56.8421053"></polygon>
    </defs>
    <g id="Page-1" stroke="none" stroke-width="1" fill="none" fill-rule="evenodd">
        <g id="VG-MISION" transform="translate(-294.000000, -2505.000000)">
            <g id="ICON-EXPERTOS" transform="translate(294.000000, 2505.000000)">
                <g id="Group-3" transform="translate(0.000000, 0.666000)">
                    <mask id="mask-2" fill="white">
                        <use xlink:href="#path-1"></use>
                    </mask>
                    <g id="Clip-2"></g>
                    <path d="M18.3486316,12.3135789 C17.1202105,13.1156842 15.4654737,12.7746316 14.6602105,11.5462105 C13.8644211,10.3114737 14.2086316,8.66305263 15.4370526,7.86410526 C16.6717895,7.05884211 18.3170526,7.40305263 19.1223158,8.622 C19.9244211,9.85673684 19.5802105,11.5114737 18.3486316,12.3135789 M49.6938947,50.3788421 C49.6938947,50.3788421 35.3917895,32.5998947 34.7349474,31.7567368 C34.0812632,30.9104211 33.3328421,29.7072632 32.6507368,28.602 C31.9717895,27.4872632 27.2602105,18.3830526 27.2602105,18.3830526 C25.0370526,14.1735789 23.3002105,9.72726316 22.0875789,5.12621053 L22.0812632,5.11989474 C21.7812632,3.97357895 20.9317895,3.06410526 19.8170526,2.682 C18.7023158,2.29989474 17.4707368,2.49884211 16.536,3.21252632 L13.2202105,5.74515789 C12.2538947,6.49042105 11.2212632,7.16936842 10.1507368,7.77568421 C10.1507368,7.77568421 0.187578947,13.4377895 0.152842105,13.4598947 C-0.753473684,14.0504211 2.48021053,20.5809474 7.35915789,28.0462105 C12.2412632,35.5083158 16.9275789,41.0851579 17.8275789,40.4977895 C17.8591579,40.4725263 28.1665263,33.7304211 29.2844211,33.0072632 C30.3991579,32.2841053 31.6086316,32.8525263 32.1328421,33.7935789 C32.6570526,34.7283158 43.0591579,54.7114737 43.0591579,54.7114737 C43.5833684,55.6998947 44.5023158,56.4293684 45.5854737,56.7104211 C46.6717895,56.9977895 47.8307368,56.802 48.7654737,56.1988421 C49.7033684,55.5767368 50.3412632,54.5946316 50.5181053,53.4925263 C50.6949474,52.3841053 50.3949474,51.2535789 49.6938947,50.3788421" id="Fill-1" fill="#161C22" mask="url(#mask-2)"></path>
                </g>
                <g id="Group-6" transform="translate(18.947368, 0.666000)">
                    <mask id="mask-4" fill="white">
                        <use xlink:href="#path-3"></use>
                    </mask>
                    <g id="Clip-5"></g>
                    <path d="M32.9043158,8.62515789 C33.7127368,7.40305263 35.358,7.062 36.5927368,7.86410526 C37.8211579,8.66621053 38.1685263,10.3114737 37.3632632,11.5493684 C36.558,12.7714737 34.9032632,13.1156842 33.6811579,12.3167368 C32.4495789,11.5114737 32.1022105,9.85673684 32.9043158,8.62515789 M1.50536842,53.4956842 C1.68536842,54.5946316 2.32642105,55.5767368 3.26115789,56.1956842 C4.20221053,56.8051579 5.358,57.0009474 6.438,56.7104211 C7.52747368,56.4293684 8.44642105,55.7030526 8.96115789,54.7083158 C8.96115789,54.7083158 19.3727368,34.7314737 19.8969474,33.7967368 C20.418,32.8556842 21.6306316,32.2841053 22.7422105,33.0104211 C23.8569474,33.7335789 34.1643158,40.4725263 34.1990526,40.4946316 C35.1022105,41.0851579 39.7885263,35.5083158 44.6706316,28.0430526 C49.5527368,20.5809474 52.7832632,14.0535789 51.8706316,13.4630526 C51.8358947,13.4409474 41.8727368,7.77568421 41.8727368,7.77568421 C40.8085263,7.17252632 39.7822105,6.49357895 38.8032632,5.74831579 L35.4937895,3.20936842 C34.5527368,2.49568421 33.3243158,2.30305263 32.2127368,2.68515789 C31.0948421,3.06410526 30.2453684,3.97673684 29.9390526,5.11989474 L29.9390526,5.12621053 C28.7264211,9.72410526 26.9958947,14.1767368 24.7727368,18.3862105 C24.7727368,18.3862105 20.058,27.4904211 19.3758947,28.602 C18.6937895,29.7104211 17.9453684,30.9104211 17.298,31.7598947 C16.6316842,32.6030526 2.33273684,50.3788421 2.33273684,50.3788421 C1.63484211,51.2504211 1.33168421,52.3841053 1.50536842,53.4956842" id="Fill-4" fill="#93C73F" mask="url(#mask-4)"></path>
                </g>
            </g>
        </g>
    </g>
</svg>