<?xml version="1.0" encoding="UTF-8"?>
<svg width="82px" height="60px" viewBox="0 0 82 60" version="1.1" xmlns="http://www.w3.org/2000/svg" xmlns:xlink="http://www.w3.org/1999/xlink">
    <title>ICON FUTURO</title>
    <defs>
        <polygon id="path-1" points="0 2.85176471 78.6134118 2.85176471 78.6134118 49.4647059 0 49.4647059"></polygon>
    </defs>
    <g id="Page-1" stroke="none" stroke-width="1" fill="none" fill-rule="evenodd">
        <g id="VG-MISION" transform="translate(-1070.000000, -2505.000000)">
            <g id="ICON-FUTURO" transform="translate(1070.000000, 2505.000000)">
                <path d="M58.566,43.0747059 C54.6730588,43.0747059 51.5177647,46.2335294 51.5177647,50.1229412 C51.5177647,53.9982353 54.6730588,57.15 58.566,57.15 C62.4412941,57.15 65.6071765,53.9982353 65.6071765,50.1229412 C65.6071765,46.2335294 62.4412941,43.0747059 58.566,43.0747059" id="Fill-1" fill="#161C22"></path>
                <path d="M15.2481176,43.0747059 C11.3728235,43.0747059 8.20694118,46.2335294 8.20694118,50.1229412 C8.20694118,53.9982353 11.3728235,57.15 15.2481176,57.15 C19.1304706,57.15 22.2963529,53.9982353 22.2963529,50.1229412 C22.2963529,46.2335294 19.1304706,43.0747059 15.2481176,43.0747059" id="Fill-3" fill="#161C22"></path>
                <g id="Group-7" transform="translate(0.000000, 0.679765)">
                    <mask id="mask-2" fill="white">
                        <use xlink:href="#path-1"></use>
                    </mask>
                    <g id="Clip-6"></g>
                    <path d="M72.0028235,28.1117647 C72.0028235,28.3764706 71.8969412,28.5670588 71.5863529,28.5670588 L58.0545882,28.5670588 C57.5781176,28.5670588 57.4157647,28.2811765 57.4157647,27.7694118 L57.4157647,18.1270588 C57.4157647,17.6682353 57.4475294,17.2694118 58.0404706,17.2694118 L63.7863529,17.2694118 C64.2098824,17.2694118 64.404,17.5058824 64.584,17.6682353 C64.7675294,17.8376471 71.2581176,25.4717647 71.6075294,25.8917647 C71.9710588,26.3082353 72.0028235,26.4211765 72.0028235,26.7494118 L72.0028235,28.1117647 Z M78.4228235,27.6988235 C78.2957647,27.4905882 77.9604706,27.0776471 77.9604706,27.0776471 L66.3098824,13.1858824 C65.6181176,12.3917647 65.0781176,12.2929412 64.464,12.2929412 L57.2887059,12.2752941 L57.2887059,4.45058824 C57.2887059,3.56823529 56.5722353,2.85176471 55.6863529,2.85176471 L1.60164706,2.85176471 C0.722823529,2.85176471 -0.000705882353,2.97529412 -0.000705882353,4.29176471 L-0.000705882353,48.9317647 C-0.000705882353,49.3376471 0.253411765,49.4647059 0.899294118,49.4647059 L3.33458824,49.4647059 C4.13576471,49.4647059 4.80988235,48.8717647 4.92635294,48.0705882 C5.60752941,42.9211765 10.0545882,39.0458824 15.2463529,39.0458824 C20.4522353,39.0458824 24.8851765,42.9211765 25.5769412,48.0705882 C25.6828235,48.8717647 26.3569412,49.4647059 27.1651765,49.4647059 L46.644,49.4647059 C47.4416471,49.4647059 48.1192941,48.8717647 48.2357647,48.0705882 C48.9169412,42.9211765 53.364,39.0458824 58.5663529,39.0458824 C63.7651765,39.0458824 68.2016471,42.9211765 68.8934118,48.0705882 C69.0028235,48.8717647 69.6769412,49.4647059 70.4745882,49.4647059 L77.0110588,49.4647059 C77.8934118,49.4647059 78.6134118,48.7376471 78.6134118,47.8552941 L78.6134118,46.5070588 L78.6134118,28.8988235 C78.6134118,28.4082353 78.6134118,28.0094118 78.4228235,27.6988235 L78.4228235,27.6988235 Z" id="Fill-5" fill="#93C73F" mask="url(#mask-2)"></path>
                </g>
            </g>
        </g>
    </g>
</svg>