<?xml version="1.0" encoding="UTF-8"?>
<svg width="75px" height="60px" viewBox="0 0 75 60" version="1.1" xmlns="http://www.w3.org/2000/svg" xmlns:xlink="http://www.w3.org/1999/xlink">
    <title>ICON ORIGEN</title>
    <defs>
        <polygon id="path-1" points="0 1.881 25.0269 1.881 25.0269 21.417 0 21.417"></polygon>
        <polygon id="path-3" points="2.60066746 0.93 14.4192 0.93 14.4192 33 2.60066746 33"></polygon>
    </defs>
    <g id="Page-1" stroke="none" stroke-width="1" fill="none" fill-rule="evenodd">
        <g id="VG-MISION" transform="translate(-683.000000, -2505.000000)">
            <g id="ICON-ORIGEN" transform="translate(683.000000, 2505.000000)">
                <g id="Group-3" transform="translate(0.000000, 1.119600)">
                    <mask id="mask-2" fill="white">
                        <use xlink:href="#path-1"></use>
                    </mask>
                    <g id="Clip-2"></g>
                    <path d="M17.4909,5.268 C18.2439,5.565 18.9549,5.712 19.6809,5.796 L19.6809,16.092 L25.0269,16.092 L25.0269,21.417 L15.6039,21.417 C14.6799,20.259 13.6599,19.107 12.3759,18.504 C11.5179,18.096 10.5009,18.087 9.5829,18.09 C7.3209,18.102 5.0619,18.597 2.8059,18.525 C1.1409,18.471 -0.6831,16.641 0.2559,14.649 C0.9039,13.281 2.0439,12.3 2.8899,11.1 C3.5979,10.092 4.2249,9.015 4.8219,7.92 C5.1069,7.398 5.3649,6.855 5.6079,6.309 C5.9739,5.49 6.1719,4.209 6.7149,3.552 C7.7559,2.307 9.4599,1.728 10.9359,1.914 C11.8449,2.031 13.4319,2.112 14.1279,2.874 C14.3739,3.144 14.6049,3.423 14.8689,3.675 C15.2049,3.567 15.5469,3.474 15.8889,3.399 C16.5429,3.258 17.2329,3.144 17.8899,3.273 C18.2469,3.345 19.1379,3.732 19.0089,4.311 C18.8859,4.845 17.8569,5.082 17.4909,5.268" id="Fill-1" fill="#93C73F" mask="url(#mask-2)"></path>
                </g>
                <path d="M51.6042,22.536 L28.5372,22.536 L28.5372,17.217 L42.7122,17.217 L42.7122,6.87 C43.1022,6.894 43.4712,6.912 43.8972,6.927 C46.5252,6.999 49.0392,6.717 51.6042,6.576 L51.6042,22.536 Z" id="Fill-4" fill="#93C73F"></path>
                <path d="M37.7394,26.0487 L37.7394,33.8367 C37.1964,33.8487 36.6414,33.9027 36.0444,34.0047 C35.0334,34.1937 34.6974,34.5657 34.2354,35.4897 L23.9574,35.4897 C23.5794,34.4097 22.7994,33.4977 21.9054,32.6607 C20.9994,31.8207 20.1534,31.2237 19.6974,29.9547 C19.2624,28.7337 19.0674,27.2337 18.3264,26.0487 L37.7394,26.0487 Z" id="Fill-6" fill="#93C73F"></path>
                <path d="M23.1891,7.1229 C25.2531,7.1859 27.6711,7.2099 29.6931,7.1679 C32.3391,7.1079 33.4881,6.6249 36.1311,6.5799 C37.2681,6.5649 38.2431,6.6099 39.2001,6.6639 L39.2001,13.7019 L23.1891,13.7019 L23.1891,7.1229 Z" id="Fill-8" fill="#161C22"></path>
                <path d="M41.2479,26.0487 L56.5329,26.0487 L56.5329,31.4457 C56.0949,31.6317 55.6539,31.8147 55.2159,31.9557 C53.0349,32.6547 50.9829,33.3627 48.7659,33.9777 C47.1129,34.4367 45.7689,34.7457 44.0259,34.5447 C43.0239,34.4277 42.1269,34.2687 41.2479,34.1277 L41.2479,26.0487 Z" id="Fill-10" fill="#93C73F"></path>
                <path d="M55.1124,22.536 L55.1124,6.507 C59.9184,6.585 64.6284,5.517 69.2664,7.272 C69.4104,7.329 70.1274,7.722 70.3344,7.851 C72.8664,9.474 73.2534,13.491 73.4094,16.188 C73.5174,18.117 73.0074,20.604 72.4974,22.536 L55.1124,22.536 Z" id="Fill-12" fill="#93C73F"></path>
                <path d="M25.7673,48.8388 C25.9173,47.8008 26.1273,46.6368 25.7673,45.6108 C25.0773,43.6458 24.6423,41.2458 24.3933,39.0048 L32.6553,39.0048 C32.4483,39.5928 32.2803,40.1808 32.2353,40.7388 C32.0973,42.6318 32.3973,44.5608 31.5693,46.3518 C30.9543,47.6868 31.0443,48.8778 31.2513,50.2848 C31.4283,51.4668 31.9173,52.7658 31.4343,53.9358 C31.2723,54.3378 30.7743,54.5688 30.7083,54.9438 C30.5883,55.6488 30.8583,56.5428 30.6243,57.1968 C30.1893,58.3758 26.3433,58.4598 26.8983,56.9028 C25.8363,57.0258 23.9703,57.2778 23.1273,56.5188 C22.2903,55.7778 24.3243,53.2638 24.7293,52.6278 C25.4223,51.4938 25.5843,50.1048 25.7673,48.8388" id="Fill-14" fill="#93C73F"></path>
                <g id="Group-18" transform="translate(57.000000, 25.119600)">
                    <mask id="mask-4" fill="white">
                        <use xlink:href="#path-3"></use>
                    </mask>
                    <g id="Clip-17"></g>
                    <path d="M5.6712,24.897 C6.1302,23.319 6.4992,21.711 6.7902,20.1 C7.0542,18.639 6.1512,17.265 5.9022,15.825 C5.6592,14.382 4.9662,13.083 4.3212,11.772 C3.7782,10.668 3.3972,9.519 3.0402,8.361 L3.0402,0.93 L14.4192,0.93 C13.7922,3.285 12.6792,5.625 12.6552,7.869 C12.6252,10.662 14.5362,13.485 13.4592,16.245 C12.6882,18.204 13.1472,20.46 12.9192,22.503 C12.9132,22.605 12.8952,22.71 12.8892,22.806 C12.8772,23.928 12.4692,24.795 12.4632,25.389 C12.4422,26.595 12.8562,27.696 12.3072,28.86 C12.1182,29.256 11.5572,29.502 11.4792,29.871 C11.3442,30.576 11.6562,31.464 11.3832,32.118 C10.8912,33.3 6.5112,33.381 7.1352,31.83 C5.9352,31.953 3.8052,32.205 2.8422,31.446 C1.8912,30.699 4.0242,28.038 4.4832,27.399 C4.9602,26.721 5.3412,25.842 5.6712,24.897" id="Fill-16" fill="#93C73F" mask="url(#mask-4)"></path>
                </g>
            </g>
        </g>
    </g>
</svg>