<?xml version="1.0" encoding="UTF-8"?>
<svg width="80px" height="60px" viewBox="0 0 80 60" version="1.1" xmlns="http://www.w3.org/2000/svg" xmlns:xlink="http://www.w3.org/1999/xlink">
    <title>ICON PLANT</title>
    <g id="Page-1" stroke="none" stroke-width="1" fill="none" fill-rule="evenodd">
        <g id="VG-MISION" transform="translate(-1073.000000, -2503.000000)" fill="#94C83D">
            <path d="M1149.08945,2545.10667 C1144.8516,2548.54492 1130.17103,2559.78723 1118.80079,2559.78723 C1107.09473,2559.78723 1093.00586,2554.89371 1089.1838,2553.48642 L1089.1838,2533.91234 C1091.07084,2532.88886 1096.34817,2530.4421 1101.14574,2532.28116 C1102.69695,2532.87286 1103.7844,2533.68845 1104.93582,2534.55201 C1106.99877,2536.08724 1109.1257,2537.68643 1113.50748,2537.68643 L1120.91172,2537.68643 C1122.39897,2537.68643 1123.61436,2538.90181 1123.61436,2540.38906 C1123.61436,2541.8763 1122.39897,2543.09169 1120.91172,2543.09169 L1106.40707,2543.09169 C1105.52752,2543.09169 1104.80788,2543.81132 1104.80788,2544.69088 C1104.80788,2545.57043 1105.52752,2546.29007 1106.40707,2546.29007 L1120.91172,2546.29007 C1121.3595,2546.29007 1121.77529,2546.2261 1122.19108,2546.14614 L1147.61819,2541.86031 C1148.16192,2541.76436 1148.70564,2541.90829 1149.12143,2542.2761 C1149.53722,2542.62792 1149.7771,2543.13966 1149.7771,2543.68339 C1149.76111,2544.2431 1149.52123,2544.75484 1149.08945,2545.10667 M1085.21781,2559.29148 L1076.95,2559.29148 C1076.53421,2559.29148 1076.19838,2558.95565 1076.19838,2558.53986 L1076.19838,2530.85789 C1076.19838,2530.4421 1076.53421,2530.10627 1076.95,2530.10627 L1085.21781,2530.10627 C1085.6336,2530.10627 1085.96943,2530.4421 1085.96943,2530.85789 L1085.96943,2554.62184 L1085.96943,2558.52387 C1085.96943,2558.95565 1085.6336,2559.29148 1085.21781,2559.29148 M1123.27853,2520.65505 C1121.58338,2519.66356 1120.83177,2517.85647 1120.51193,2516.51315 C1120.1761,2515.08987 1119.50444,2513.37874 1118.91274,2512.00344 C1122.51091,2512.51518 1125.27751,2514.01842 1127.14856,2516.48117 C1128.14006,2517.79251 1128.77974,2519.39169 1129.00203,2521.1508 C1126.63682,2521.66254 1124.7178,2521.48663 1123.27853,2520.65505 M1135.27245,2513.20283 C1138.29492,2509.22085 1142.83662,2506.91801 1148.7856,2506.34231 C1147.85647,2508.42125 1146.6107,2511.42773 1146.035,2513.82651 C1145.53925,2515.87348 1144.38783,2518.65607 1141.73318,2520.20728 C1139.39676,2521.56659 1136.26235,2521.79048 1132.37792,2520.87894 C1132.64978,2517.98441 1133.64128,2515.36174 1135.27245,2513.20283 M1147.07447,2538.69392 L1132.29796,2541.18865 L1132.29796,2524.14129 C1133.84917,2524.46113 1135.32042,2524.63704 1136.69573,2524.63704 C1139.23844,2524.63704 1141.45971,2524.07732 1143.34836,2522.97388 C1146.97852,2520.84696 1148.49775,2517.23279 1149.13742,2514.57813 C1150.01698,2510.93198 1152.76758,2505.38279 1152.78358,2505.31883 C1153.03945,2504.82308 1153.00746,2504.23138 1152.70362,2503.75162 C1152.39977,2503.28785 1151.90402,2503.04798 1151.32831,2503 C1141.01354,2503.14393 1135.51233,2507.57368 1132.71375,2511.26781 C1131.72225,2512.57915 1130.93864,2514.01842 1130.36294,2515.58562 C1130.15504,2515.2338 1129.94715,2514.88198 1129.70727,2514.54615 C1127.69229,2511.89149 1123.74229,2508.70911 1116.37003,2508.59716 C1115.79432,2508.54919 1115.29857,2508.86903 1114.99472,2509.34878 C1114.69088,2509.82854 1114.67329,2510.42024 1114.91476,2510.91599 C1114.93076,2510.94797 1116.8178,2514.77004 1117.42549,2517.24878 C1117.88926,2519.1838 1119.00709,2521.83846 1121.67934,2523.40566 C1123.06903,2524.22125 1124.7018,2524.62105 1126.55686,2524.62105 C1127.35646,2524.62105 1128.22002,2524.52509 1129.11557,2524.36517 L1129.11557,2541.71638 L1126.50889,2542.16416 C1126.6848,2541.60444 1126.81273,2541.01274 1126.81273,2540.38906 C1126.81273,2537.1427 1124.17407,2534.48805 1120.91172,2534.48805 L1113.50748,2534.48805 C1110.18116,2534.48805 1108.70991,2533.38461 1106.83885,2531.99331 C1105.62347,2531.08177 1104.24817,2530.05829 1102.28116,2529.29068 C1097.22772,2527.33967 1092.06234,2529.00283 1089.11983,2530.34614 C1088.87995,2528.39513 1087.23279,2526.89189 1085.21781,2526.89189 L1076.95,2526.89189 C1074.7751,2526.90789 1073,2528.68299 1073,2530.85789 L1073,2558.53986 C1073,2560.71476 1074.7751,2562.48986 1076.95,2562.48986 L1085.21781,2562.48986 C1087.39271,2562.48986 1089.16781,2560.71476 1089.16781,2558.53986 L1089.16781,2556.90869 C1094.28522,2558.74775 1107.38258,2563 1118.7848,2563 C1131.21051,2563 1146.65708,2551.21557 1151.08844,2547.6014 C1152.27184,2546.64189 1152.9435,2545.21861 1152.9435,2543.69938 C1152.9435,2542.21213 1152.28783,2540.80485 1151.1524,2539.84533 C1150.03297,2538.86983 1148.54572,2538.45404 1147.07447,2538.69392" id="ICON-PLANT"></path>
        </g>
    </g>
</svg>