<?xml version="1.0" encoding="UTF-8"?>
<svg width="73px" height="60px" viewBox="0 0 73 60" version="1.1" xmlns="http://www.w3.org/2000/svg" xmlns:xlink="http://www.w3.org/1999/xlink">
    <title>ICON RESPETO ANIMAL</title>
    <g id="Page-1" stroke="none" stroke-width="1" fill="none" fill-rule="evenodd">
        <g id="VG-MISION" transform="translate(-684.000000, -1808.000000)" fill="#93C73F">
            <path d="M721.531527,1816.17956 L727.110659,1821.32266 C732.54767,1826.32364 724.625423,1834.93565 719.035874,1829.55891 L713.537848,1824.27444 L693.767572,1844.01421 C695.51319,1845.89078 697.460455,1847.71676 699.509658,1849.49214 L716.936073,1831.38564 C717.900404,1830.38112 719.422053,1831.84176 718.457722,1832.84553 L701.122085,1850.86125 C703.079766,1852.49452 705.10888,1854.07718 707.117159,1855.59883 L724.3516,1837.99904 C725.325604,1837.00495 726.826419,1838.48642 725.862832,1839.47009 L708.811435,1856.88683 C710.688011,1858.29687 712.584678,1859.69575 714.461254,1861.11694 L730.944916,1845.23152 C731.948684,1844.26794 733.409318,1845.78959 732.40555,1846.75317 L716.165203,1862.40495 C717.585657,1863.50024 718.904171,1864.54493 720.060476,1865.53903 C730.802797,1856.37937 754.255536,1843.91227 754.011477,1828.81855 C753.727982,1811.62503 732.912271,1803.75338 721.531527,1816.17956 L721.531527,1816.17956 Z M719.350621,1817.04195 C707.340383,1803.49965 686.119891,1811.38172 686.119891,1828.79846 C686.119891,1833.49511 688.625218,1838.08015 692.35828,1842.44196 L712.757305,1822.07344 C713.16283,1821.66792 713.832504,1821.62699 714.248446,1822.04293 L720.496508,1828.03801 C724.057688,1831.45632 729.037833,1825.9583 725.680532,1822.87482 L719.350621,1817.04195 Z M720.060476,1814.66833 C732.760478,1800.96456 755.806949,1809.71795 756.111278,1828.77837 C756.385101,1845.58645 732.182326,1857.56618 720.760658,1867.72961 C720.364806,1868.09495 719.756146,1868.08528 719.361038,1867.72961 C708.182685,1857.78941 684,1844.79549 684,1828.79846 C684,1809.76929 707.370891,1800.97423 720.060476,1814.66833 L720.060476,1814.66833 Z" id="ICON-RESPETO-ANIMAL"></path>
        </g>
    </g>
</svg>