<?xml version="1.0" encoding="UTF-8"?>
<svg width="59px" height="63px" viewBox="0 0 59 63" version="1.1" xmlns="http://www.w3.org/2000/svg" xmlns:xlink="http://www.w3.org/1999/xlink">
    <title>ICON SERVICIO</title>
    <g id="Page-1" stroke="none" stroke-width="1" fill="none" fill-rule="evenodd">
        <g id="VG-MISION" transform="translate(-302.000000, -1811.000000)">
            <g id="ICON-SERVICIO" transform="translate(302.000000, 1811.000000)">
                <path d="M15.584,45.4693333 C13.9973333,44.966 12.6873333,43.7826667 12.0373333,42.176 C11.1706667,40.0026667 11.6906667,37.5526667 13.3773333,35.946 L25.334,24.4793333 L25.334,14.6993333 C25.334,7.70266667 19.6606667,0.332666667 12.664,0.332666667 C5.67066667,0.332666667 0.000666666667,7.70266667 0.000666666667,14.6993333 L0.000666666667,62.4626667 L15.864,62.4626667 C15.6973333,61.9326667 15.584,61.376 15.584,60.7893333 L15.584,45.4693333 Z" id="Fill-1" fill="#171D23"></path>
                <path d="M58.5253333,40.717 C58.7986667,40.0336667 58.6286667,39.267 58.1053333,38.7603333 L38.3286667,19.7936667 C37.982,19.4603333 37.5353333,19.297 37.0886667,19.297 C36.6453333,19.297 36.202,19.4603333 35.8553333,19.7936667 L16.0786667,38.7603333 C15.5486667,39.267 15.382,40.0336667 15.6553333,40.717 C15.9253333,41.3936667 16.5853333,41.837 17.3153333,41.837 L19.482,41.837 L19.482,60.7903333 C19.482,61.777 20.2853333,62.5836667 21.2686667,62.5836667 L52.912,62.5836667 C53.902,62.5836667 54.6986667,61.777 54.6986667,60.7903333 L54.6986667,41.837 L56.8686667,41.837 C57.5953333,41.837 58.252,41.3936667 58.5253333,40.717" id="Fill-4" fill="#94C83D"></path>
            </g>
        </g>
    </g>
</svg>