<?xml version="1.0" encoding="UTF-8"?>
<svg width="65px" height="65px" viewBox="0 0 65 65" version="1.1" xmlns="http://www.w3.org/2000/svg" xmlns:xlink="http://www.w3.org/1999/xlink">
    <title>ICON SOSTENIBILIDAD</title>
    <defs>
        <polygon id="path-1" points="4.3628131e-05 0.0889405941 37.9704257 0.0889405941 37.9704257 38.6138614 4.3628131e-05 38.6138614"></polygon>
    </defs>
    <g id="Page-1" stroke="none" stroke-width="1" fill="none" fill-rule="evenodd">
        <g id="VG-MISION" transform="translate(-1074.000000, -1805.000000)">
            <g id="ICON-SOSTENIBILIDAD" transform="translate(1074.000000, 1805.000000)">
                <path d="M64.100297,28.0170594 L63.8525248,25.8450297 L61.8729208,25.8450297 C49.7301485,25.8450297 41.075495,28.7584455 35.504802,34.328495 C35.3027228,34.5305743 35.1238119,34.8053762 34.9294554,35.008099 C36.8891089,37.5308713 38.3557921,40.1714158 39.4498515,42.8904752 C42.9090099,37.5315149 48.7313366,32.5458218 57.9658416,29.7913663 C48.2724752,36.0989406 43.684505,45.3997327 41.8966832,52.6752277 C42.2712376,55.617604 42.4070297,58.6983465 42.4070297,61.9393366 C42.4070297,62.2186436 42.3825743,62.4953762 42.3471782,62.7663168 C47.0368317,61.2005248 51.3358416,58.4930495 54.925,54.9013168 C61.9984158,47.8304752 65.3488119,37.9672079 64.100297,28.0170594" id="Fill-1" fill="#93C73F"></path>
                <g id="Group-5" transform="translate(0.000000, 25.756089)">
                    <mask id="mask-2" fill="white">
                        <use xlink:href="#path-1"></use>
                    </mask>
                    <g id="Clip-4"></g>
                    <path d="M14.1109208,24.557901 C9.42126733,19.8695347 6.81290099,13.7942871 6.64364356,7.26918812 C14.6450792,7.79047525 20.5169604,9.87240594 24.1157723,13.4718614 C28.8845842,18.2419604 30.9568614,23.4039901 31.4266634,32.0232475 C24.8848317,31.8443366 18.7593861,29.2089406 14.1109208,24.557901 L14.1109208,24.557901 Z M37.9704257,36.1851782 C37.9704257,25.3533465 36.4760693,16.3415149 28.707604,8.57240594 C23.138198,3.00235644 14.6270594,0.0889405941 2.48364356,0.0889405941 L0.504683168,0.0889405941 L0.257554455,2.2609703 C-0.992247525,12.2111188 2.34656436,22.0756733 9.4180495,29.1445842 C15.4887921,35.2166139 23.5655248,38.6139901 32.1609703,38.6139901 C33.5073069,38.6139901 34.7674059,38.553495 36.1034455,38.3868119 L37.9697822,38.1647822 L37.9697822,36.1851782 L37.9704257,36.1851782 Z" id="Fill-3" fill="#93C73F" mask="url(#mask-2)"></path>
                </g>
                <path d="M62.1444406,17.9915495 L57.1368663,6.3205099 C56.5492921,4.95679703 55.2640941,4.8815 54.2839455,6.15575743 L52.8912723,7.9654604 C47.2793911,3.20308416 40.0302822,6.43564356e-05 32.1105792,6.43564356e-05 C18.0519158,0.000707920792 6.07518317,9.11229208 1.70473762,21.3400149 L2.4834505,21.3400149 C4.87300495,21.3400149 7.13770792,21.7583317 9.29043069,21.9597673 C13.2090941,13.2465495 21.9525594,7.30902475 32.1105792,7.30902475 C38.3898366,7.30902475 44.133005,9.71659901 48.5304802,13.5522426 L48.5073119,13.6217475 L47.0805297,15.4964505 C46.0978069,16.771995 46.5000347,18.0024901 47.9712228,18.2180842 L60.5342426,20.0779851 C62.0086485,20.2955099 62.7326584,19.3584802 62.1444406,17.9915495" id="Fill-6" fill="#020303"></path>
            </g>
        </g>
    </g>
</svg>