<?xml version="1.0" encoding="UTF-8"?>
<svg width="65px" height="65px" viewBox="0 0 65 65" version="1.1" xmlns="http://www.w3.org/2000/svg" xmlns:xlink="http://www.w3.org/1999/xlink">
    <title>ICON TRAZABILIDAD</title>
    <defs>
        <polygon id="path-1" points="0 0.00013 65 0.00013 65 65 0 65"></polygon>
    </defs>
    <g id="Page-1" stroke="none" stroke-width="1" fill="none" fill-rule="evenodd">
        <g id="VG-MISION" transform="translate(-683.000000, -2151.000000)">
            <g id="ICON-TRAZABILIDAD" transform="translate(683.000000, 2151.000000)">
                <g id="Group-3">
                    <mask id="mask-2" fill="white">
                        <use xlink:href="#path-1"></use>
                    </mask>
                    <g id="Clip-2"></g>
                    <path d="M53.27985,29.90013 C58.3479,29.90013 62.4,33.76568 62.4,39.00013 C62.4,40.11033 62.01195,42.12728 61.6486,43.10293 C58.8809,48.95553 56.08525,54.80488 53.3,60.65358 C50.57195,54.77888 47.65605,48.85673 44.9514,43.10293 C44.58935,42.12468 44.2,40.10838 44.2,39.00013 C44.2,33.76178 48.2118,29.90013 53.27985,29.90013 L53.27985,29.90013 Z M10.42015,2.60013 C14.78425,2.60013 18.2,5.80918 18.2,10.40013 C18.2,11.36148 17.84575,13.32253 17.55,14.13763 C15.1814,19.23103 12.7855,24.32248 10.4,29.41263 C8.07105,24.29713 5.65955,19.35128 3.25,14.13763 C2.9536,13.32513 2.6,11.36343 2.6,10.40013 C2.6,5.81243 6.0567,2.60013 10.42015,2.60013 L10.42015,2.60013 Z M10.42015,0.00013 C4.732,0.00013 0,4.46628 0,10.40013 C0,11.84898 0.32305,13.73008 0.8125,15.05153 C3.601,21.04583 6.4181,27.05248 9.22155,33.04808 C9.42955,33.49398 9.9086,33.80013 10.4,33.80013 L27.95,33.80013 C31.21365,33.80013 33.8,36.38648 33.8,39.65013 C33.8,42.91378 31.21365,45.50013 27.95,45.50013 L20.15,45.50013 C14.7706,45.50013 10.4,49.87073 10.4,55.25013 C10.4,60.62888 14.7706,65.00013 20.15,65.00013 L53.3,65.00013 C53.7914,65.00013 54.27045,64.69398 54.4778,64.24873 C57.64265,57.49718 60.9492,50.79308 64.0861,44.03763 C64.61975,42.61673 65,40.60368 65,39.00013 C65,32.39808 59.6999,27.30013 53.27985,27.30013 C46.85915,27.30013 41.6,32.40198 41.6,39.00013 C41.6,40.60498 41.98415,42.61998 42.5139,44.03763 C45.4103,50.15543 48.33595,56.27973 51.2486,62.40013 L20.15,62.40013 C16.16615,62.40013 13,59.23333 13,55.25013 C13,51.26628 16.16615,48.10013 20.15,48.10013 L27.95,48.10013 C32.60855,48.10013 36.4,44.30868 36.4,39.65013 C36.4,34.99158 32.60855,31.20013 27.95,31.20013 L12.4514,31.20013 C14.9565,25.81358 17.52595,20.44653 19.9875,15.05153 C20.4724,13.73333 20.8,11.84963 20.8,10.40013 C20.8,4.47018 16.1083,0.00013 10.42015,0.00013 Z" id="Fill-1" fill="#93C73F" mask="url(#mask-2)"></path>
                </g>
                <path d="M10.400195,12.349805 C9.307545,12.349805 8.450195,11.492455 8.450195,10.399805 C8.450195,9.307805 9.307545,8.449805 10.400195,8.449805 C11.492845,8.449805 12.350195,9.307805 12.350195,10.399805 C12.350195,11.492455 11.492845,12.349805 10.400195,12.349805 M10.400195,5.849805 C7.902895,5.849805 5.850195,7.902505 5.850195,10.399805 C5.850195,12.897755 7.902895,14.949805 10.400195,14.949805 C12.897495,14.949805 14.950195,12.897105 14.950195,10.399805 C14.950195,7.902505 12.897495,5.849805 10.400195,5.849805" id="Fill-4" fill="#161C22"></path>
                <path d="M53.300195,42.249805 C51.489945,42.249805 50.050195,40.810055 50.050195,38.999805 C50.050195,37.189555 51.489945,35.749805 53.300195,35.749805 C55.110445,35.749805 56.550195,37.189555 56.550195,38.999805 C56.550195,40.810055 55.110445,42.249805 53.300195,42.249805 M53.300195,33.149805 C50.084645,33.149805 47.450195,35.784255 47.450195,38.999805 C47.450195,42.215355 50.084645,44.849805 53.300195,44.849805 C56.515745,44.849805 59.150195,42.215355 59.150195,38.999805 C59.150195,35.784255 56.515745,33.149805 53.300195,33.149805" id="Fill-6" fill="#161C22"></path>
            </g>
        </g>
    </g>
</svg>